<svg width="360" height="247" viewBox="0 0 360 247" fill="none" xmlns="http://www.w3.org/2000/svg">
<rect width="360" height="247" fill="#FFF1E3"/>
<path d="M101.235 241.982L100.624 237.074H94.5273C95.6386 239.85 96.4912 241.487 96.6804 241.841C96.3473 242.273 95.8761 242.955 95.8263 243.347C95.7191 244.192 95.8343 244.772 95.9821 245.146C96.1126 245.476 96.4343 245.709 96.763 245.709H107.528L107.427 245.083C103.786 244.239 102.088 242.82 101.235 241.982Z" fill="#E48855"/>
<path d="M96.6295 241.917C96.4986 241.865 96.3508 241.905 96.2616 242.014C96.1027 242.208 95.8675 242.534 95.8215 242.809C95.7509 243.233 95.0209 244.552 95.7745 245.8H107.879C107.879 245.8 108.162 244.764 107.055 244.481C105.948 244.199 104.959 244.105 104.959 244.105L101.544 241.985C101.544 241.985 101.262 241.137 100.885 241.02C100.508 240.902 99.7073 241.467 99.7308 242.15C99.7544 242.833 97.6584 242.833 97.3287 242.409C97.1279 242.151 96.831 241.997 96.6295 241.917Z" fill="#253E89"/>
<path d="M81.6929 241.982L81.8748 237.074H75.7773C76.4404 239.85 77.0288 241.488 77.1608 241.841C77.0471 241.963 76.9203 242.106 76.7928 242.255C77.1036 242.718 77.2877 243.265 77.2877 243.821V245.709H87.383V245.083C83.8786 244.239 82.4098 242.82 81.6929 241.982Z" fill="#E48855"/>
<path d="M77.2716 241.917C77.1407 241.865 76.9929 241.905 76.9036 242.014C76.7448 242.208 76.5096 242.534 76.4636 242.809C76.393 243.233 75.663 244.552 76.4165 245.8H88.5213C88.5213 245.8 88.8038 244.764 87.697 244.481C86.5901 244.199 85.601 244.105 85.601 244.105L82.1863 241.985C82.1863 241.985 81.9037 241.137 81.5269 241.02C81.1501 240.902 80.3494 241.467 80.3729 242.15C80.3965 242.833 78.3005 242.833 77.9708 242.409C77.77 242.151 77.4731 241.997 77.2716 241.917Z" fill="#253E89"/>
<path d="M73.8585 208.356C73.8585 208.356 72.6958 214.68 72.9077 220.049C73.0837 224.508 75.0601 236.359 75.7262 240.255H82.4036L83.7171 182.322L87.7442 209.452C87.7442 209.452 89.5376 227.557 95.769 240.255H101.461L93.1842 171.654L92.4777 165.932L74.8153 166.638C74.8153 166.638 72.4838 173.209 72.8371 176.953C72.8371 176.953 72.0539 190.092 73.8585 208.356Z" fill="#0A0A5C"/>
<path d="M74.4854 168.783C76.0116 168.938 77.5404 169.049 79.0684 169.149C80.5971 169.24 82.1262 169.325 83.6566 169.34C85.1863 169.372 86.7168 169.359 88.2445 169.28C89.7708 169.191 91.2961 169.053 92.8072 168.783C91.3178 169.156 89.7904 169.37 88.2587 169.497C86.7257 169.621 85.1875 169.633 83.6514 169.623C82.1154 169.584 80.5811 169.502 79.0519 169.365C77.5229 169.227 75.9982 169.04 74.4854 168.783Z" fill="#616261"/>
<path d="M86.4013 167.794C86.3842 169.53 86.3717 171.267 86.3311 173.002C86.3032 174.737 86.2521 176.472 86.2037 178.208C86.2024 178.257 86.1732 178.299 86.1324 178.321L83.5922 179.645C83.5245 179.681 83.4408 179.655 83.4053 179.587C83.3936 179.565 83.3886 179.54 83.3895 179.517L83.6592 173.536C83.7553 171.543 83.8726 169.551 83.9992 167.559C83.9688 169.555 83.9291 171.55 83.8683 173.545L83.6669 179.528L83.4644 179.399L86.0107 178.086L85.9395 178.199C86.0011 176.465 86.0598 174.73 86.1418 172.996C86.2111 171.261 86.3085 169.528 86.4013 167.794Z" fill="#616261"/>
<path d="M82.7275 182.96C83.3985 182.553 84.1028 182.223 84.8149 181.912C85.5312 181.61 86.2556 181.328 87.0136 181.123C86.3428 181.531 85.6385 181.861 84.9262 182.172C84.2095 182.472 83.4851 182.755 82.7275 182.96Z" fill="#616261"/>
<path d="M96.528 240.092L94.6607 232.906L92.8539 225.705L91.078 218.496L90.216 214.885L89.8038 213.073L89.6126 212.162C89.5825 212.01 89.5528 211.857 89.5303 211.698C89.5166 211.634 89.5056 211.512 89.5207 211.404C89.5478 211.326 89.5778 211.249 89.6103 211.176C89.7489 210.88 89.87 210.649 89.754 210.4C89.7053 210.276 89.6281 210.153 89.5366 210.038C89.4934 209.994 89.4439 209.88 89.4072 209.796L89.3396 209.565C89.1781 208.956 89.0671 208.349 88.9463 207.74C88.7151 206.523 88.5046 205.303 88.2981 204.083C87.8875 201.642 87.4985 199.198 87.1157 196.753L85.9906 189.414L84.9414 182.064L87.3013 196.723C87.6997 199.165 88.1042 201.606 88.5302 204.043C88.7444 205.261 88.9626 206.479 89.2009 207.691C89.3244 208.294 89.4412 208.906 89.6007 209.491L89.6648 209.706C89.6973 209.759 89.6897 209.799 89.7537 209.87C89.8542 209.996 89.9468 210.137 90.0126 210.3C90.0817 210.461 90.0998 210.665 90.0504 210.839C90.0054 211.015 89.9275 211.153 89.8681 211.29C89.8372 211.358 89.8105 211.426 89.7866 211.493C89.7944 211.538 89.7918 211.572 89.8069 211.661C89.8267 211.808 89.855 211.959 89.8837 212.11L90.0678 213.017L90.4678 214.827L91.3062 218.442L93.0359 225.661L96.528 240.092Z" fill="#616261"/>
<path d="M95.2959 210.415C95.3114 210.083 95.4052 209.783 95.5174 209.491C95.6395 209.202 95.7806 208.921 96.0007 208.672C95.9859 209.004 95.892 209.304 95.7792 209.596C95.6565 209.885 95.5154 210.166 95.2959 210.415Z" fill="#616261"/>
<path d="M79.9019 210.09C79.9561 209.839 80.0542 209.639 80.1566 209.437C80.2682 209.24 80.3807 209.049 80.5612 208.865C80.5898 209.122 80.5146 209.358 80.4053 209.571C80.287 209.779 80.1314 209.972 79.9019 210.09Z" fill="#616261"/>
<path d="M75.4743 167.416C75.0482 169.06 74.6968 170.725 74.4718 172.407C74.2162 174.089 74.3217 175.79 74.3283 177.488L74.5108 187.679L74.9453 208.06L74.9037 207.968C75.163 208.234 75.3369 208.555 75.3984 208.92C75.4671 209.292 75.3316 209.65 75.2469 209.958C75.0682 210.598 74.8918 211.246 74.9024 211.893C74.9245 212.196 74.9635 212.571 74.9432 212.9L74.9068 213.906L74.8218 215.913C74.7182 218.587 74.6644 221.266 74.8075 223.937C74.8753 225.272 75.0014 226.605 75.2388 227.918C75.4832 229.232 75.7332 230.554 75.891 231.885C76.2222 234.546 76.4018 237.224 76.4164 239.903C76.3613 237.225 76.1409 234.551 75.7702 231.901C75.5862 230.575 75.3399 229.264 75.0858 227.946C74.8397 226.625 74.7063 225.286 74.6312 223.947C74.4736 221.268 74.5137 218.583 74.6033 215.905L74.6778 213.897L74.7089 212.896C74.7257 212.554 74.6908 212.263 74.6629 211.899C74.6489 211.2 74.8304 210.536 75.006 209.89C75.0964 209.558 75.2056 209.262 75.1462 208.96C75.0985 208.663 74.9339 208.37 74.7263 208.159L74.7223 208.155C74.6981 208.13 74.6856 208.098 74.6846 208.066C74.5149 201.272 74.4266 194.477 74.3123 187.683L74.1827 177.49C74.1855 175.795 74.1172 174.081 74.3957 172.397C74.6467 170.714 75.0235 169.054 75.4743 167.416Z" fill="#616261"/>
<path d="M105.032 142.048C105.032 142.048 105.746 140.327 105.809 139.802C105.872 139.277 105.137 138.312 105.137 138.312L102.199 138.123C102.199 138.123 101.842 139.256 101.863 139.634C101.884 140.012 102.682 141.649 102.682 141.649L105.032 142.048Z" fill="#EBAF7F"/>
<path d="M122.005 137.851L95.786 136.497L94.1984 132.036L113.667 114.422L122.005 137.851Z" fill="#EB7D0F"/>
<path d="M101.309 136.254V138.691H106.996V136.219" stroke="#FBB063" stroke-width="0.379749" stroke-miterlimit="10"/>
<path d="M102.368 137.367C102.368 137.367 101.906 137.43 101.843 137.724C101.78 138.018 102.095 139.382 102.535 139.466C102.976 139.55 103.081 137.472 102.368 137.367Z" fill="#EBAF7F"/>
<path d="M103.481 137.553C103.481 137.553 103.018 137.499 102.884 137.769C102.75 138.038 102.716 139.437 103.123 139.628C103.529 139.819 104.146 137.832 103.481 137.553Z" fill="#EBAF7F"/>
<path d="M104.236 137.703C104.236 137.703 103.773 137.65 103.639 137.919C103.505 138.188 103.472 139.588 103.878 139.778C104.284 139.969 104.901 137.982 104.236 137.703Z" fill="#EBAF7F"/>
<path d="M105.118 137.85C105.118 137.85 104.655 137.796 104.521 138.065C104.387 138.334 104.333 139.298 104.74 139.489C105.146 139.679 105.783 138.129 105.118 137.85Z" fill="#EBAF7F"/>
<path d="M102.31 140.835C102.31 140.835 101.144 139.492 100.932 139.21C100.72 138.927 101.45 138.221 101.78 138.115C102.11 138.009 102.592 137.95 102.675 138.091C102.757 138.232 102.298 138.962 102.298 138.962C102.298 138.962 102.934 139.869 102.828 140.199C102.722 140.528 102.31 140.835 102.31 140.835Z" fill="#EBAF7F"/>
<path d="M102.886 139.953C102.651 139.631 102.428 139.308 102.222 138.975C102.207 138.951 102.21 138.92 102.226 138.899C102.412 138.65 102.6 138.369 102.647 138.075L102.68 138.136C102.523 138.066 102.322 138.045 102.135 138.068C101.946 138.098 101.755 138.152 101.579 138.245C101.89 138.009 102.325 137.856 102.739 138.024C102.763 138.034 102.776 138.058 102.773 138.082L102.773 138.086C102.73 138.443 102.532 138.724 102.322 138.981L102.327 138.905C102.528 139.247 102.714 139.599 102.886 139.953Z" fill="#E48855"/>
<path d="M102.625 139.455C102.716 139.365 102.743 139.242 102.759 139.127C102.774 139.012 102.765 138.883 102.762 138.758C102.772 138.508 102.777 138.259 102.837 138.006C102.894 138.256 102.897 138.511 102.903 138.765C102.893 138.891 102.906 139.018 102.865 139.15C102.829 139.276 102.749 139.408 102.625 139.455Z" fill="#E48855"/>
<path d="M102.85 139.082C102.905 139.243 102.971 139.412 103.074 139.522C103.181 139.645 103.297 139.546 103.378 139.4C103.468 139.266 103.525 139.105 103.584 138.947C103.639 138.788 103.691 138.625 103.735 138.457C103.752 138.806 103.674 139.157 103.498 139.475C103.447 139.55 103.392 139.63 103.29 139.679C103.18 139.737 103.044 139.676 102.993 139.594C102.878 139.434 102.858 139.255 102.85 139.082Z" fill="#E48855"/>
<path d="M103.575 139.203C103.638 139.376 103.714 139.558 103.833 139.671C103.896 139.724 103.961 139.742 104.011 139.706C104.069 139.667 104.118 139.588 104.158 139.512C104.248 139.359 104.306 139.183 104.367 139.011C104.424 138.837 104.479 138.66 104.526 138.478C104.537 138.856 104.452 139.231 104.281 139.58C104.231 139.664 104.179 139.751 104.079 139.814C103.967 139.887 103.814 139.832 103.756 139.747C103.621 139.583 103.591 139.389 103.575 139.203Z" fill="#E48855"/>
<path d="M104.426 139.029C104.5 139.145 104.577 139.257 104.663 139.348C104.758 139.443 104.841 139.487 104.925 139.404C105.019 139.338 105.091 139.223 105.162 139.114C105.231 139.003 105.299 138.887 105.357 138.763C105.349 138.901 105.314 139.038 105.258 139.165C105.201 139.292 105.13 139.415 105.01 139.517C104.952 139.563 104.847 139.603 104.759 139.566C104.677 139.533 104.62 139.478 104.58 139.417C104.496 139.298 104.452 139.165 104.426 139.029Z" fill="#E48855"/>
<path d="M76.6907 175.006C76.6907 175.006 79.6184 175.052 79.6693 174.922C79.7201 174.792 79.0984 174.458 79.0984 174.458C79.0984 174.458 79.6467 174.379 79.5901 174.04C79.5392 173.701 77.0241 173.452 77.0241 173.452C77.0241 173.452 79.4828 172.797 79.121 172.384C78.7536 171.971 75.3341 173.119 75.3624 172.265C75.3851 171.406 75.4303 170.423 75.1986 170.581C75.0346 170.688 74.2603 171.508 73.8308 171.96L72.5025 170.445C72.3443 171.321 71.8356 173.746 70.8804 174.34C72.4065 175.227 73.4295 175.786 73.4295 175.786L73.4351 175.775C73.4577 175.792 73.4747 175.809 73.5029 175.82C74.232 176.154 78.1715 176.64 78.4315 176.431C78.6914 176.222 76.6907 175.006 76.6907 175.006ZM77.8775 174.221C78.2902 174.255 78.7028 174.306 79.1097 174.407C78.6914 174.441 78.2732 174.43 77.8606 174.396C77.448 174.362 77.0411 174.317 76.6285 174.215C77.0468 174.176 77.465 174.193 77.8775 174.221Z" fill="#EBAF7F"/>
<path d="M82.0059 133.011L76.6839 133.805L77.9118 142.043L83.2338 141.249L82.0059 133.011Z" fill="#EBAF7F"/>
<path d="M82.757 138.049L82.9054 139.045C82.5321 139.116 81.9784 139.163 81.3103 139.035C80.6503 138.911 79.8791 138.617 79.054 138.013C78.2487 137.423 77.5183 136.403 76.9013 135.262L76.7952 134.551C77.3812 135.585 78.0601 136.496 78.8029 137.04C79.6279 137.644 80.3992 137.939 81.0592 138.062C81.7924 138.203 82.3855 138.132 82.757 138.049Z" fill="#E48855"/>
<path d="M105.57 141.554C105.429 141.083 101.425 140.8 101.095 140.989C100.766 141.177 100.766 142.355 100.766 142.355C100.766 142.355 100.012 148.666 99.8709 148.807C99.7296 148.949 99.4941 149.514 99.4941 149.514C99.4941 149.514 90.5451 140.753 89.2734 140.518C88.0017 140.282 84.3986 140.306 84.3986 140.306C84.1395 139.552 83.0091 139.623 83.0091 139.623L83.1269 140.447C81.4313 142.873 77.8281 141.295 77.8281 141.295L77.6397 140.188C75.9206 140.424 76.109 141.366 76.109 141.366C76.109 141.366 73.2241 141.589 70.1862 145.404C67.1482 149.219 62.1674 155.26 62.1674 155.26C62.1674 155.26 57.6811 158.828 57.3632 161.583C57.0453 164.339 57.6105 165.398 58.8115 166.705C60.0126 168.012 68.3493 173.134 68.3493 173.134C68.3493 173.134 68.8792 174.406 70.3981 174.477C71.9171 174.547 72.5529 170.132 72.5529 170.132C72.5529 170.132 69.6916 165.999 68.8438 165.045C67.996 164.091 67.0423 162.537 67.0423 162.537L73.6325 156.893L74.9786 161.83C74.7667 163.22 74.3898 167.059 74.3898 167.059C76.4623 167.977 91.8639 167.906 92.6175 166.493C93.3711 165.08 91.7697 159.193 91.7461 159.122C91.7337 159.085 91.8332 156.9 91.8774 154.358C94.6289 156.386 100.362 160.176 102.65 158.416C105.711 156.061 105.711 142.025 105.57 141.554Z" fill="#EB7D0F"/>
<path d="M66.006 160.769C66.2586 160.99 66.4377 161.252 66.5997 161.524C66.7523 161.801 66.8872 162.088 66.9481 162.418C66.6949 162.198 66.5158 161.936 66.3544 161.664C66.2024 161.386 66.0675 161.099 66.006 160.769Z" fill="#F68953"/>
<path d="M73.6363 156.81C73.9841 156.394 74.3842 156.045 74.7968 155.711C75.2159 155.385 75.6478 155.075 76.1326 154.832C75.7854 155.249 75.3851 155.598 74.9721 155.932C74.5526 156.257 74.1207 156.567 73.6363 156.81Z" fill="#F68953"/>
<path d="M91.8633 154.173C91.7624 153.097 91.738 152.022 91.724 150.947C91.7159 149.872 91.7355 148.8 91.7692 147.721C91.8691 148.253 91.9132 148.792 91.9492 149.33C91.9873 149.868 91.9991 150.407 92.0064 150.945C92.0091 152.022 91.9824 153.098 91.8633 154.173Z" fill="#F68953"/>
<path d="M76.1794 141.599C76.8466 142.094 77.5646 142.512 78.3198 142.828C79.0737 143.141 79.8762 143.352 80.6823 143.339C81.0776 143.333 81.4672 143.243 81.8339 143.086C82.1962 142.916 82.5227 142.678 82.8321 142.416C83.4354 141.871 83.9272 141.195 84.3277 140.469C84.0321 141.247 83.5787 141.972 82.9808 142.574C82.6805 142.875 82.3274 143.124 81.9427 143.319C81.5493 143.498 81.1221 143.607 80.6853 143.622C79.8282 143.611 78.9892 143.391 78.2316 143.026C77.4744 142.659 76.773 142.184 76.1794 141.599Z" fill="#F68953"/>
<path d="M99.3997 149.607C99.6879 149.732 99.9175 149.918 100.133 150.118C100.342 150.326 100.536 150.548 100.671 150.832C100.383 150.708 100.153 150.522 99.9376 150.321C99.7295 150.113 99.5353 149.891 99.3997 149.607Z" fill="#F68953"/>
<path d="M100.012 148.76C100.307 148.883 100.544 149.069 100.768 149.269C100.984 149.476 101.187 149.699 101.331 149.984C101.036 149.861 100.799 149.676 100.576 149.476C100.36 149.267 100.157 149.045 100.012 148.76Z" fill="#F68953"/>
<path d="M84.8606 154.332C84.6413 155.518 84.197 156.661 83.6143 157.72C83.0229 158.775 82.2871 159.756 81.3955 160.568C82.1218 159.607 82.7934 158.625 83.3674 157.583C83.9502 156.545 84.4296 155.456 84.8606 154.332Z" fill="#F68953"/>
<path d="M85.9755 155.117C85.8696 156.489 85.5574 157.843 85.1132 159.147C84.6594 160.447 84.0701 161.706 83.3071 162.85C83.8757 161.599 84.4062 160.345 84.8462 159.054C85.2961 157.768 85.6523 156.453 85.9755 155.117Z" fill="#F68953"/>
<path d="M84.6106 124.979C83.9934 124.109 81.2975 123.644 78.8406 124.495C76.3785 125.33 74.5381 127.352 74.5835 128.418C74.6011 128.823 74.8118 129.728 75.1725 130.816C74.9147 130.744 74.5725 130.724 74.1093 130.814C72.469 131.132 74.4908 136.723 76.5829 134.158C77.2157 135.351 77.9691 136.427 78.8032 137.039C79.6283 137.643 80.3995 137.937 81.0595 138.061C82.3308 138.303 83.1828 137.919 83.1828 137.919L83.6512 137.758C83.6512 137.758 84.7971 137.481 85.7264 136.176C86.0543 135.715 86.3553 135.125 86.5694 134.376C86.7658 133.677 86.7953 132.824 86.7128 131.914C86.4595 129.081 85.1387 125.726 84.6106 124.979Z" fill="#EBAF7F"/>
<path d="M81.7426 135.492C81.87 136.347 81.555 137.42 81.0601 138.064C80.4001 137.94 79.6288 137.646 78.8038 137.042C77.9191 136.393 77.1234 135.224 76.4681 133.945C76.9231 133.422 77.56 133.052 78.3012 132.942C79.9567 132.695 81.4958 133.837 81.7426 135.492Z" fill="#E9A770"/>
<path d="M86.7133 131.916C86.7958 132.826 86.7663 133.679 86.5699 134.377C86.3558 135.126 86.0548 135.717 85.7269 136.177C85.4923 135.823 85.3301 135.413 85.2635 134.966C85.0767 133.713 85.6846 132.521 86.7133 131.916Z" fill="#E9A770"/>
<path d="M74.5225 133.331C74.2887 133.074 74.1416 132.738 74.1615 132.35C74.1744 132.149 74.34 131.954 74.5352 131.892C74.7278 131.821 74.9432 131.846 75.1182 131.917C75.4535 132.084 75.7353 132.319 75.9083 132.651C76.0713 132.983 76.0891 133.339 76.0808 133.68C75.9877 133.35 75.916 133.011 75.7411 132.745C75.5714 132.487 75.3021 132.265 75.0224 132.148C74.7566 132.013 74.41 132.098 74.3495 132.385C74.3116 132.526 74.3313 132.693 74.366 132.854C74.3948 133.02 74.4381 133.181 74.5225 133.331Z" fill="#E48855"/>
<path d="M75.4645 133.871C75.3069 133.821 75.1801 133.692 75.0964 133.547C75.01 133.4 74.9736 133.237 74.9495 133.069C74.9465 132.9 74.9679 132.708 75.092 132.56C75.2091 132.42 75.4167 132.344 75.5684 132.428C75.4085 132.453 75.3061 132.559 75.2499 132.67C75.1981 132.781 75.1786 132.913 75.1983 133.051C75.2148 133.336 75.285 133.608 75.4645 133.871Z" fill="#E48855"/>
<path d="M81.1046 134.283C81.3793 134.352 81.6044 134.418 81.8719 134.511C81.5996 134.592 81.2888 134.499 81.1046 134.283Z" fill="#E48855"/>
<path d="M80.6251 133.273C80.965 133.523 81.2931 133.749 81.6666 133.875C81.846 133.955 82.0379 133.998 82.2334 134.028C82.4296 134.067 82.6307 134.064 82.8447 134.079C82.6515 134.166 82.4382 134.22 82.2204 134.219C82.0021 134.228 81.7849 134.178 81.5782 134.108C81.1759 133.943 80.8115 133.663 80.6251 133.273Z" fill="#E48855"/>
<path d="M82.7893 129.66C82.9006 130.273 83.0519 130.854 83.3348 131.389C83.4547 131.665 83.62 131.972 83.5821 132.325C83.5423 132.68 83.2819 132.939 83.0066 133.074C83.2238 132.855 83.3995 132.588 83.3903 132.313C83.3869 132.038 83.252 131.77 83.11 131.497C82.8405 130.929 82.6924 130.281 82.7893 129.66Z" fill="#E48855"/>
<path d="M82.0768 133.005C82.1709 132.924 82.2463 132.944 82.3188 132.96C82.3793 133.003 82.4445 133.046 82.446 133.171C82.3337 133.222 82.2795 133.2 82.2165 133.188C82.1654 133.149 82.1132 133.122 82.0768 133.005Z" fill="#E48855"/>
<path d="M81.3378 131.243C81.3905 131.597 81.2189 131.916 80.9545 131.955C80.69 131.995 80.4329 131.74 80.3801 131.386C80.3274 131.032 80.499 130.713 80.7635 130.674C81.028 130.635 81.2851 130.89 81.3378 131.243Z" fill="#010101"/>
<path d="M84.9411 130.706C84.9938 131.06 84.8222 131.379 84.5578 131.418C84.2933 131.458 84.0361 131.203 83.9834 130.849C83.9307 130.495 84.1023 130.176 84.3668 130.137C84.6312 130.098 84.8883 130.352 84.9411 130.706Z" fill="#010101"/>
<path d="M81.2553 129.349C81.0946 129.359 80.8968 129.375 80.7189 129.41C80.5361 129.439 80.3559 129.483 80.1776 129.538C79.9986 129.591 79.8268 129.666 79.6569 129.75C79.4855 129.832 79.3263 129.938 79.1604 130.045L79.153 130.049C79.0946 130.087 79.0168 130.07 78.9793 130.011C78.9494 129.965 78.9543 129.905 78.9874 129.864C79.1204 129.7 79.2704 129.543 79.4447 129.415C79.6128 129.278 79.8072 129.177 80.0044 129.084C80.2022 128.991 80.414 128.93 80.6291 128.891C80.8489 128.856 81.0563 128.838 81.299 128.871C81.43 128.889 81.5218 129.009 81.5039 129.14C81.4882 129.255 81.3936 129.34 81.2823 129.347L81.2553 129.349Z" fill="#010101"/>
<path d="M81.6157 128.871C81.655 128.962 81.6372 129.072 81.5762 129.155C81.5158 129.238 81.4317 129.291 81.3496 129.33L81.3433 129.333C81.2797 129.364 81.2035 129.337 81.1731 129.273C81.1428 129.209 81.1698 129.133 81.2334 129.103C81.248 129.096 81.2638 129.092 81.279 129.091C81.3456 129.086 81.4082 129.072 81.4567 129.042C81.4806 129.027 81.5015 129.007 81.5162 128.982C81.5313 128.958 81.5393 128.923 81.5396 128.895L81.5398 128.887C81.54 128.865 81.5578 128.847 81.5798 128.847C81.5959 128.848 81.6097 128.857 81.6157 128.871Z" fill="#010101"/>
<path d="M83.6609 128.992C83.8177 128.955 84.0117 128.913 84.1918 128.894C84.3752 128.868 84.5605 128.858 84.7469 128.858C84.9336 128.857 85.1199 128.879 85.3068 128.91C85.4948 128.938 85.6779 128.993 85.8677 129.047L85.8761 129.049C85.943 129.068 86.0124 129.029 86.0313 128.962C86.0463 128.909 86.0242 128.853 85.9807 128.824C85.8055 128.705 85.6162 128.599 85.4122 128.528C85.2113 128.445 84.996 128.405 84.7804 128.374C84.564 128.343 84.3436 128.346 84.1263 128.371C83.906 128.402 83.7022 128.445 83.4797 128.548C83.3596 128.603 83.3071 128.745 83.3624 128.865C83.4109 128.97 83.526 129.024 83.6346 128.998L83.6609 128.992Z" fill="#010101"/>
<path d="M83.177 128.641C83.1659 128.739 83.2149 128.839 83.2976 128.901C83.3796 128.963 83.4755 128.989 83.5655 129.002L83.5723 129.003C83.642 129.014 83.7071 128.966 83.7175 128.896C83.728 128.826 83.68 128.761 83.6102 128.751C83.5942 128.748 83.578 128.749 83.5631 128.752C83.498 128.767 83.434 128.772 83.3789 128.757C83.3515 128.75 83.3259 128.738 83.3044 128.717C83.283 128.699 83.265 128.668 83.2568 128.642L83.2542 128.633C83.2476 128.612 83.2254 128.601 83.2045 128.607C83.1891 128.612 83.1787 128.626 83.177 128.641Z" fill="#010101"/>
<path d="M87.0167 127.735C87.0054 125.961 86.395 124.169 85.191 122.863C84.722 122.355 84.0777 121.902 83.3938 122.021C82.9473 122.095 82.5799 122.411 82.1842 122.648C81.0934 123.31 79.7539 123.378 78.5331 123.762C76.3627 124.446 74.5258 126.351 73.8306 128.521C73.2598 128.645 72.8245 129.143 72.6493 129.691C72.4684 130.245 72.508 130.844 72.6211 131.415C72.9997 133.359 74.1979 135.122 75.8653 136.191C76.2835 136.462 76.7301 136.688 77.154 136.954L76.7979 134.546C76.7244 134.422 76.6509 134.292 76.5831 134.162C74.4919 136.728 72.4684 131.132 74.1076 130.816C74.5188 130.735 74.8323 130.747 75.0765 130.801C75.8119 131.694 76.507 132.63 77.0701 133.635C77.7343 133.236 77.9679 132.368 77.9131 131.595C77.8583 130.823 77.5795 130.083 77.471 129.316C77.4295 129.023 77.4146 128.716 77.5191 128.439C77.6236 128.162 77.8729 127.922 78.1686 127.909C79.6858 127.837 81.2278 128.246 82.6917 127.841C83.2989 127.673 83.8924 127.437 84.5186 127.367C84.9229 127.322 85.3471 127.372 85.7181 127.527C86.0435 128.485 86.3535 129.601 86.5476 130.708C86.8528 129.747 87.0279 128.747 87.0167 127.735Z" fill="#010101"/>
<path d="M311.685 238.792C311.421 238.48 310.613 238.095 310.068 237.865C310.068 237.862 310.068 237.862 310.068 237.859C310 236.734 309.056 224.695 300.538 208.169C300.691 207.584 301.621 203.921 302.463 198.906C298.747 199.27 295.022 199.527 291.289 199.643L291.597 207.891C291.66 209.594 292.083 211.265 292.837 212.794L300.143 227.612L306.055 239.611C305.783 240.605 305.139 242.625 302.06 244.999L302.316 245.57L312.142 241.174C312.442 241.04 312.607 240.711 312.542 240.379C312.469 240.002 312.252 239.464 311.685 238.792Z" fill="#CE6448"/>
<path d="M305.628 239.646L301.318 230.674C301.318 230.674 302.378 229.72 303.72 229.861C303.72 229.861 307.712 228.554 308.277 227.813C308.277 227.813 309.655 231.734 310.291 237.421C310.291 237.421 312.445 238.587 312.622 240.918L302.166 245.793C302.166 245.793 301.53 244.981 301.883 244.698C302.236 244.415 305.628 239.646 305.628 239.646Z" fill="#010101"/>
<path d="M302.166 245.378C303.817 244.433 305.517 243.586 307.214 242.731C308.924 241.906 310.631 241.073 312.386 240.338C310.735 241.284 309.035 242.13 307.338 242.985C305.628 243.81 303.921 244.643 302.166 245.378Z" fill="#616261"/>
<path d="M303.955 230.07C304.496 231.355 305.016 232.649 305.509 233.952C306.004 235.256 306.476 236.567 306.912 237.895C307.016 238.23 307.119 238.561 307.197 238.913C307.22 238.993 307.234 239.097 307.239 239.207C307.254 239.311 307.194 239.416 307.165 239.5C307.088 239.668 307.001 239.822 306.912 239.975C306.548 240.579 306.146 241.153 305.703 241.698C305.262 242.241 304.796 242.768 304.276 243.24C303.754 243.686 303.16 244.168 302.448 244.2C303.153 244.12 303.695 243.612 304.181 243.139C304.674 242.654 305.116 242.117 305.532 241.564C305.941 241.007 306.346 240.441 306.69 239.846C306.774 239.696 306.856 239.547 306.923 239.396C306.994 239.245 306.979 239.145 306.933 238.97C306.857 238.643 306.748 238.309 306.643 237.98C306.232 236.654 305.757 235.343 305.306 234.026C304.849 232.711 304.399 231.392 303.955 230.07Z" fill="#616261"/>
<path d="M308.665 232.212C308.681 232.895 308.103 233.552 307.37 233.577C307.013 233.596 306.641 233.467 306.368 233.214C306.095 232.961 305.934 232.588 305.934 232.212C305.934 231.836 306.095 231.462 306.368 231.21C306.64 230.956 307.013 230.827 307.37 230.846C308.103 230.871 308.681 231.529 308.665 232.212ZM308.665 232.212C308.664 231.872 308.519 231.537 308.272 231.31C308.025 231.082 307.691 230.969 307.37 230.988C306.713 231.015 306.202 231.605 306.216 232.212C306.202 232.819 306.713 233.41 307.37 233.437C307.691 233.455 308.026 233.342 308.272 233.114C308.519 232.887 308.664 232.552 308.665 232.212Z" fill="#616261"/>
<path d="M287.56 199.711C283.844 199.728 280.121 199.608 276.405 199.465L271.602 241.291C270.758 242.129 269.073 243.549 265.441 244.392L265.346 245.018H276.11C276.439 245.018 276.759 244.785 276.886 244.455C277.03 244.081 277.14 243.501 277.024 242.656C276.971 242.264 276.493 241.582 276.155 241.15C276.679 240.156 282.886 228.029 284.455 208.252C284.455 208.252 285.911 204.761 287.56 199.711Z" fill="#CE6448"/>
<path d="M271.167 240.996L272.399 231.043C272.399 231.043 274.204 230.622 275.363 231.313C275.363 231.313 278.46 231.674 279.845 231.495C280.061 231.467 280.223 231.685 280.14 231.887C279.62 233.144 278.249 236.546 276.827 240.818C276.827 240.818 277.801 242.893 276.984 245.083L265.447 245.125C265.447 245.125 265.211 244.12 265.65 244.012C266.089 243.904 271.167 240.996 271.167 240.996Z" fill="#010101"/>
<path d="M265.746 244.54C267.648 244.468 269.547 244.505 271.446 244.532C273.344 244.593 275.243 244.644 277.139 244.806C275.237 244.88 273.338 244.842 271.439 244.814C269.541 244.753 267.642 244.701 265.746 244.54Z" fill="#616261"/>
<path d="M274.42 231.801C274.305 233.19 274.167 234.577 274 235.961C273.835 237.345 273.646 238.726 273.418 240.105C273.354 240.45 273.293 240.791 273.199 241.139C273.183 241.221 273.146 241.32 273.1 241.419C273.065 241.519 272.964 241.583 272.898 241.645C272.753 241.758 272.604 241.854 272.455 241.949C271.852 242.315 271.229 242.638 270.585 242.916C269.942 243.193 269.286 243.444 268.606 243.622C267.937 243.775 267.188 243.927 266.542 243.627C267.203 243.881 267.919 243.682 268.569 243.488C269.23 243.286 269.871 243.016 270.495 242.718C271.116 242.413 271.737 242.1 272.317 241.731C272.461 241.637 272.603 241.543 272.732 241.44C272.865 241.34 272.898 241.245 272.938 241.067C273.023 240.742 273.081 240.396 273.14 240.055C273.39 238.69 273.575 237.308 273.786 235.932C273.989 234.555 274.202 233.178 274.42 231.801Z" fill="#616261"/>
<path d="M277.603 235.883C277.301 236.495 276.484 236.81 275.823 236.493C275.498 236.344 275.227 236.058 275.103 235.707C274.978 235.357 275.008 234.952 275.182 234.618C275.357 234.284 275.672 234.028 276.031 233.931C276.39 233.831 276.78 233.89 277.088 234.072C277.726 234.434 277.933 235.285 277.603 235.883ZM277.603 235.883C277.759 235.581 277.786 235.217 277.672 234.901C277.559 234.585 277.314 234.33 277.022 234.198C276.427 233.918 275.701 234.204 275.432 234.748C275.139 235.28 275.318 236.04 275.888 236.369C276.164 236.533 276.513 236.588 276.837 236.5C277.161 236.414 277.445 236.183 277.603 235.883Z" fill="#616261"/>
<path d="M281.89 164.654C281.89 164.654 279.134 170.588 278.286 176.593C277.439 182.599 275.484 201.58 275.484 201.58C275.484 201.58 291.663 203.911 302.543 201.58C302.543 201.58 305.557 184.859 303.579 175.392C301.601 165.925 298.987 164.371 298.987 164.371L281.89 164.654Z" fill="#128807"/>
<path d="M298.398 166.725C299.404 169.481 300.12 172.351 300.485 175.272C300.671 176.73 300.727 178.216 300.664 179.68L300.532 184.08L300.209 192.878C300.094 195.81 299.96 198.742 299.811 201.673C299.855 198.738 299.915 195.804 299.992 192.871L300.249 184.074L300.407 179.676C300.483 178.209 300.421 176.753 300.27 175.297C300.117 173.842 299.866 172.397 299.548 170.967C299.237 169.536 298.865 168.116 298.398 166.725Z" fill="#616261"/>
<path d="M286.943 178.414C287.24 179.551 287.625 180.646 288.145 181.682C288.656 182.722 289.297 183.69 290.023 184.614C289.134 183.841 288.422 182.865 287.892 181.807C287.37 180.746 287.022 179.589 286.943 178.414Z" fill="#616261"/>
<path d="M286.029 180.008C286.163 181.998 286.508 183.964 287.151 185.839C287.763 187.724 288.668 189.503 289.754 191.176C288.474 189.638 287.533 187.826 286.883 185.928C286.263 184.02 285.929 182.006 286.029 180.008Z" fill="#616261"/>
<path d="M277.718 148.85C277.246 150.129 276.795 151.364 276.346 152.585C272.87 149.401 269.456 145.818 266.207 142.434L266.207 142.432C266.207 142.432 266.2 142.426 266.191 142.418C266.164 142.389 266.137 142.361 266.11 142.333C266.109 142.334 266.107 142.335 266.106 142.336C265.76 142.007 264.596 140.914 264.26 140.802C263.865 140.67 262.556 140.72 262.556 140.72L261.904 143.898C261.904 143.898 262.717 144.959 263.293 145.045C263.404 145.061 263.571 145.065 263.767 145.06C267.024 149.862 270.29 154.361 274.011 158.729C274.224 158.978 274.651 159.458 275.175 160.039C277.119 162.199 280.646 161.8 281.999 159.228C282.232 158.786 282.46 158.341 282.681 157.893C283.369 156.504 283.996 155.085 284.551 153.641C282.126 152.376 279.882 150.583 277.718 148.85Z" fill="#BB5B3F"/>
<path d="M287.519 140.682C287.519 140.682 281.631 141.106 279.7 143.979C277.769 146.852 276.403 151.75 276.403 151.75L282.95 155.236L285.494 142.66L287.519 140.682Z" fill="white"/>
<path d="M294.065 141.152C294.06 141.063 294.067 140.982 294.069 140.898C293.708 140.846 293.352 140.803 293.002 140.766V133.248H287.621V140.705C287.209 140.738 286.811 140.775 286.441 140.82C286.399 141.205 286.262 141.607 286.002 142.013C285.284 143.136 284.841 145.216 284.55 146.501C284.098 148.497 283.885 149.094 286.091 148.769C288.954 148.349 291.817 147.049 294.434 145.524C294.297 144.023 294.146 142.549 294.065 141.152Z" fill="#CE6448"/>
<path d="M287.621 138.415V139.422C288 139.437 288.555 139.402 289.197 139.177C289.831 138.957 290.551 138.553 291.278 137.833C291.987 137.131 292.559 136.015 293.002 134.796V134.076C292.574 135.185 292.037 136.187 291.383 136.834C290.656 137.553 289.936 137.958 289.302 138.178C288.597 138.425 288 138.443 287.621 138.415Z" fill="#C3443D"/>
<path d="M287.519 140.68C287.519 140.68 284.646 145.625 285.588 146.52C286.53 147.415 293.124 140.633 293.124 140.633C293.124 140.633 296.656 141.433 297.786 142.422C298.917 143.412 299.67 148.875 298.587 152.737C297.504 156.6 296.797 160.556 296.797 160.556C296.797 160.556 299.906 163.994 300.424 165.549C300.424 165.549 292.417 168.94 281.066 165.549L282.526 154.668C282.526 154.668 280.595 151.089 280.218 149.252C280.038 148.374 280.557 146.529 281.148 144.841C281.898 142.698 283.79 141.158 286.041 140.865C286.592 140.793 287.113 140.728 287.519 140.68Z" fill="white"/>
<path d="M264.467 105.449H262.924V179.066H264.467V105.449Z" fill="#606161"/>
<path d="M282.771 89.623H244.62V109.546H282.771V89.623Z" fill="#ED5C41"/>
<path d="M255.911 94.0745C256.096 94.0745 256.271 94.0891 256.436 94.1182C256.271 94.9834 256.091 95.8291 255.897 96.6554C255.712 97.4816 255.518 98.303 255.314 99.1196C255.11 99.9361 254.901 100.758 254.687 101.584C254.473 102.4 254.249 103.232 254.016 104.077C253.938 104.077 253.817 104.087 253.651 104.106C253.486 104.126 253.301 104.136 253.097 104.136C252.883 104.136 252.665 104.126 252.441 104.106C252.227 104.097 252.043 104.067 251.887 104.019C251.45 102.444 251.09 100.83 250.808 99.1779C250.526 97.5157 250.317 95.8437 250.181 94.162V94.1474C250.239 94.0794 250.366 94.0307 250.56 94.0016C250.755 93.9724 250.964 93.9578 251.187 93.9578C251.411 93.9481 251.625 93.9481 251.829 93.9578C252.033 93.9676 252.174 93.9821 252.252 94.0016C252.29 94.196 252.315 94.5119 252.324 94.9494C252.334 95.3868 252.359 95.9117 252.397 96.5241C252.436 97.1365 252.499 97.8121 252.587 98.5509C252.684 99.2897 252.83 100.053 253.024 100.84C253.209 100.053 253.36 99.3335 253.476 98.6822C253.593 98.0211 253.695 97.4136 253.783 96.8595C253.87 96.3054 253.953 95.7951 254.03 95.3285C254.108 94.8619 254.201 94.4244 254.308 94.0162C254.308 93.9967 254.317 93.987 254.337 93.987C254.502 94.0259 254.672 94.0502 254.847 94.0599C255.022 94.0599 255.197 94.0599 255.372 94.0599C255.557 94.0599 255.737 94.0648 255.911 94.0745ZM262.016 94.5703C262.298 94.823 262.497 95.1195 262.614 95.4597C262.682 95.6055 262.73 95.7562 262.759 95.9117C262.798 96.0575 262.827 96.2082 262.847 96.3637C262.866 96.6068 262.876 96.8498 262.876 97.0928C262.886 97.3261 262.886 97.5643 262.876 97.8073C262.847 98.3225 262.837 98.8231 262.847 99.3092C262.857 99.7952 262.842 100.291 262.803 100.796L262.759 101.278C262.74 101.618 262.687 101.963 262.599 102.313C262.512 102.653 262.38 102.964 262.205 103.246C262.04 103.479 261.821 103.669 261.549 103.815C261.287 103.951 261.005 104.058 260.703 104.136C260.431 104.213 260.154 104.262 259.872 104.281C259.6 104.301 259.323 104.301 259.041 104.281C258.837 104.262 258.638 104.233 258.443 104.194C258.259 104.165 258.079 104.111 257.904 104.033C257.739 103.956 257.588 103.858 257.452 103.742C257.316 103.615 257.204 103.455 257.116 103.261C256.98 103.018 256.888 102.76 256.839 102.488C256.801 102.206 256.776 101.924 256.767 101.642C256.737 100.884 256.703 100.126 256.664 99.3675C256.635 98.5995 256.645 97.8316 256.694 97.0636C256.703 96.6262 256.757 96.1888 256.854 95.7513C256.961 95.3042 257.165 94.9105 257.466 94.5703C257.564 94.473 257.675 94.3856 257.802 94.3078C258.123 94.1523 258.468 94.0405 258.837 93.9724C259.216 93.8947 259.59 93.8655 259.96 93.8849C260.339 93.9044 260.703 93.9724 261.053 94.0891C261.413 94.196 261.734 94.3564 262.016 94.5703ZM261.053 99.7174V99.0175L261.024 98.026C261.024 98.0163 261.015 97.9191 260.995 97.7344C260.985 97.54 260.976 97.3601 260.966 97.1949C260.946 96.9227 260.869 96.6748 260.733 96.4512C260.606 96.2277 260.431 96.0624 260.208 95.9555C260.013 95.8777 259.814 95.8631 259.61 95.9117C259.406 95.9603 259.226 96.043 259.07 96.1596C258.73 96.4221 258.502 96.7574 258.385 97.1657C258.307 97.5351 258.259 97.9239 258.239 98.3322C258.23 98.7405 258.234 99.1488 258.254 99.557C258.302 99.8973 258.336 100.247 258.356 100.607C258.375 100.957 258.434 101.292 258.531 101.613C258.628 101.807 258.769 101.958 258.954 102.065C259.138 102.172 259.338 102.235 259.552 102.255C259.765 102.264 259.979 102.235 260.193 102.167C260.407 102.089 260.587 101.968 260.733 101.803C260.82 101.686 260.883 101.594 260.922 101.525C260.961 101.448 260.985 101.365 260.995 101.278C261.005 101.19 261.005 101.088 260.995 100.971C260.995 100.845 261.005 100.68 261.024 100.476C261.034 100.281 261.039 100.111 261.039 99.9653C261.049 99.8195 261.053 99.7369 261.053 99.7174ZM266.498 93.812C267.558 93.8023 268.588 93.8509 269.589 93.9578C269.609 94.2786 269.614 94.648 269.604 95.066C269.604 95.484 269.58 95.868 269.531 96.2179C269.346 96.179 269.118 96.1645 268.846 96.1742C268.573 96.1839 268.209 96.1985 267.752 96.2179H267.723H267.708C267.708 96.2277 267.703 96.2374 267.694 96.2471C267.694 96.2471 267.694 96.252 267.694 96.2617C267.684 96.3103 267.674 96.388 267.665 96.495C267.665 96.5922 267.665 96.7526 267.665 96.9762C267.665 97.19 267.665 97.4768 267.665 97.8364C267.674 98.1864 267.684 98.6433 267.694 99.2071C267.703 99.7612 267.713 100.432 267.723 101.219C267.733 101.997 267.747 102.916 267.767 103.975V103.99V104.004C267.592 104.033 267.397 104.053 267.183 104.063C266.979 104.063 266.77 104.063 266.556 104.063C266.352 104.063 266.148 104.063 265.944 104.063C265.74 104.063 265.55 104.077 265.375 104.106C265.366 104.067 265.366 103.893 265.375 103.581C265.385 103.27 265.39 102.809 265.39 102.196C265.4 101.574 265.395 100.782 265.375 99.8195C265.366 98.8571 265.332 97.6955 265.273 96.3346L265.259 96.32C265.142 96.2617 264.996 96.2277 264.821 96.2179C264.646 96.1985 264.471 96.1888 264.296 96.1888C264.121 96.179 263.961 96.1742 263.815 96.1742C263.669 96.1742 263.567 96.1645 263.509 96.145C263.489 96.1061 263.47 96.0089 263.451 95.8534C263.441 95.6979 263.431 95.5132 263.421 95.2993C263.421 95.0757 263.421 94.8376 263.421 94.5848C263.421 94.3321 263.431 94.0891 263.451 93.8558C263.451 93.8461 263.446 93.8412 263.436 93.8412C263.436 93.8412 263.436 93.8363 263.436 93.8266C264.427 93.8169 265.448 93.812 266.498 93.812ZM274.581 102.094C275.203 102.123 275.845 102.128 276.506 102.109V102.138C276.525 102.449 276.53 102.775 276.521 103.115C276.511 103.445 276.467 103.756 276.389 104.048C275.398 104.038 274.387 104.053 273.356 104.092C272.336 104.121 271.354 104.097 270.411 104.019C270.411 103.173 270.401 102.337 270.382 101.511C270.362 100.675 270.348 99.8438 270.338 99.0175C270.328 98.1913 270.328 97.365 270.338 96.5387C270.348 95.7124 270.377 94.8813 270.426 94.0453C270.805 94.0259 271.213 94.0113 271.65 94.0016C272.098 93.9821 272.545 93.9676 272.992 93.9578C273.439 93.9481 273.872 93.9384 274.29 93.9287C274.708 93.919 275.077 93.9141 275.398 93.9141C275.719 93.9141 275.976 93.919 276.171 93.9287C276.365 93.9384 276.462 93.9481 276.462 93.9578C276.511 94.2981 276.521 94.6432 276.491 94.9931C276.472 95.3431 276.462 95.6881 276.462 96.0284V96.043C276.151 96.111 275.835 96.1547 275.514 96.1742C275.203 96.1839 274.887 96.1888 274.567 96.1888C274.246 96.179 273.925 96.1742 273.604 96.1742C273.284 96.1742 272.963 96.1888 272.642 96.2179H272.598L272.584 96.2325C272.593 96.5144 272.579 96.806 272.54 97.1074C272.511 97.399 272.53 97.6761 272.598 97.9385L272.613 97.9531C272.904 97.9725 273.201 97.9823 273.502 97.9823C273.804 97.9823 274.105 97.9871 274.406 97.9968V98.0114C274.455 98.3419 274.469 98.6724 274.45 99.0029C274.431 99.3335 274.426 99.6785 274.435 100.038C274.29 100.077 274.124 100.101 273.94 100.111C273.755 100.111 273.575 100.111 273.4 100.111C273.235 100.111 273.084 100.116 272.948 100.126C272.812 100.135 272.72 100.16 272.671 100.199C272.623 100.481 272.603 100.796 272.613 101.146C272.632 101.496 272.652 101.788 272.671 102.021L272.686 102.036C273.327 102.036 273.959 102.055 274.581 102.094Z" fill="white"/>
<path d="M261.705 140.681C261.705 140.681 261.906 140.209 262.236 140.227C262.567 140.246 263.925 140.976 263.887 141.469C263.848 141.962 261.609 141.47 261.705 140.681Z" fill="#BB5B3F"/>
<path d="M261.58 141.919C261.58 141.919 261.658 141.411 261.982 141.347C262.307 141.283 263.805 141.654 263.889 142.141C263.974 142.628 261.683 142.707 261.58 141.919Z" fill="#BB5B3F"/>
<path d="M261.517 142.763C261.517 142.763 261.594 142.255 261.919 142.191C262.244 142.127 263.741 142.498 263.826 142.985C263.911 143.472 261.62 143.551 261.517 142.763Z" fill="#BB5B3F"/>
<path d="M261.417 143.743C261.417 143.743 261.495 143.235 261.819 143.171C262.144 143.107 263.184 143.329 263.269 143.816C263.353 144.303 261.52 144.531 261.417 143.743Z" fill="#BB5B3F"/>
<path d="M265.568 141.821C265.568 141.821 264.319 139.997 264.08 139.69C263.841 139.382 262.878 139.953 262.67 140.273C262.461 140.592 262.258 141.088 262.385 141.217C262.511 141.346 263.42 141.069 263.42 141.069C263.42 141.069 264.199 141.98 264.58 141.992C264.975 142.004 265.766 142.236 265.568 141.821Z" fill="#BB5B3F"/>
<path d="M291.577 143.277C290.317 143.995 288.96 145.568 288 146.955C285.198 151.008 282.97 154.429 280.066 158.368C275.853 156.104 266.603 150.279 265.594 149.644L265.594 149.642C265.594 149.642 265.562 149.622 265.51 149.591C265.507 149.589 265.499 149.584 265.499 149.584C265.499 149.584 265.499 149.584 265.499 149.584C265.365 149.502 265.102 149.342 264.81 149.175C264.742 149.102 263.6 147.883 263.348 147.65C263.089 147.41 262.311 148.064 262.171 148.381C262.161 148.405 262.151 148.432 262.14 148.458C261.981 148.417 261.848 148.395 261.776 148.403C261.477 148.435 261.367 148.888 261.367 148.888C261.378 149.133 261.626 149.305 261.945 149.411C261.847 149.416 261.762 149.425 261.715 149.443C261.433 149.549 261.439 150.015 261.439 150.015C261.474 150.131 261.564 150.213 261.684 150.273C261.504 150.435 261.507 150.781 261.507 150.781C261.554 150.937 261.697 151.034 261.885 151.091C261.87 151.095 261.85 151.097 261.838 151.102C261.557 151.207 261.563 151.673 261.563 151.673C261.651 151.966 261.992 152.048 262.344 152.015C262.65 152.256 263.109 152.568 263.434 152.563C263.621 152.56 263.965 152.491 264.332 152.404C266.299 154.222 273.052 160.42 276.458 162.986C276.645 163.126 276.858 163.283 277.09 163.451C279.651 165.315 283.189 165.056 285.459 162.847C286.004 162.317 286.468 161.857 286.739 161.574C290.807 157.36 294.502 152.596 296.542 147.104C297.645 144.136 294.559 141.586 291.577 143.277Z" fill="#CE6448"/>
<path d="M284.457 151.612C284.457 151.612 290.486 141.061 294.301 142.38C298.116 143.699 297.315 147.844 296.844 149.115C296.373 150.387 291.428 156.84 291.428 156.84L284.457 151.612Z" fill="white"/>
<path d="M282.479 154.769C282.296 154.297 282.126 153.814 281.894 153.373C281.635 152.956 281.338 152.524 281.104 152.071C280.628 151.164 280.308 150.164 280.214 149.132C280.123 148.093 280.359 147.062 280.656 146.096C280.967 145.13 281.343 144.15 282.008 143.371C281.716 143.786 281.507 144.249 281.327 144.719C281.141 145.187 280.991 145.668 280.865 146.156C280.612 147.131 280.387 148.118 280.495 149.11C280.563 150.102 280.874 151.068 281.298 151.975C281.506 152.435 281.768 152.853 282.017 153.312C282.216 153.79 282.355 154.276 282.479 154.769Z" fill="#90BFE7"/>
<path d="M284.693 151.801L284.293 151.497C284.28 151.487 284.277 151.468 284.286 151.454L284.288 151.45C285.06 150.299 285.887 149.19 286.726 148.09C287.155 147.548 287.57 146.995 288.013 146.462C288.45 145.926 288.892 145.393 289.355 144.877C288.979 145.46 288.581 146.026 288.178 146.589C287.781 147.155 287.356 147.701 286.946 148.258C286.104 149.356 285.251 150.445 284.343 151.492L284.338 151.445L284.693 151.801Z" fill="#90BFE7"/>
<path d="M291.098 156.559L291.495 156.866L291.45 156.871C292.32 155.508 293.248 154.188 294.188 152.875C294.669 152.227 295.135 151.568 295.629 150.929C296.117 150.286 296.611 149.647 297.127 149.023C296.701 149.711 296.252 150.383 295.799 151.051C295.35 151.722 294.874 152.374 294.414 153.037C293.469 154.346 292.514 155.648 291.5 156.907L291.497 156.91C291.487 156.922 291.469 156.924 291.457 156.914L291.455 156.912L291.098 156.559Z" fill="#90BFE7"/>
<path d="M296.043 150.672L295.373 154.929C295.153 156.347 294.905 157.764 294.748 159.184C294.727 159.361 294.708 159.538 294.694 159.714C294.682 159.875 294.67 160.098 294.691 160.189C294.663 160.169 294.71 160.215 294.733 160.232C294.762 160.253 294.792 160.272 294.825 160.288C294.892 160.32 294.968 160.341 295.055 160.363C295.139 160.387 295.247 160.397 295.36 160.497C295.476 160.607 295.473 160.756 295.465 160.853C295.402 161.261 295.206 161.567 295.097 161.894C295.072 161.972 295.048 162.055 295.049 162.113C295.054 162.138 295.055 162.149 295.059 162.148L295.061 162.151L295.096 162.178L295.166 162.233C295.301 162.368 295.418 162.503 295.537 162.641C296.473 163.737 297.345 164.878 298.21 166.026L296.795 164.401C296.326 163.857 295.858 163.312 295.374 162.785C295.254 162.655 295.13 162.524 295.007 162.409L294.971 162.381L294.953 162.365C294.936 162.354 294.918 162.341 294.902 162.328C294.832 162.271 294.814 162.186 294.809 162.124C294.806 162 294.838 161.91 294.865 161.817C294.983 161.465 295.169 161.139 295.209 160.83C295.217 160.666 295.194 160.673 294.993 160.619C294.905 160.598 294.807 160.574 294.711 160.529C294.662 160.507 294.616 160.479 294.572 160.447C294.53 160.405 294.491 160.404 294.441 160.292C294.378 160.033 294.416 159.89 294.419 159.695C294.43 159.513 294.447 159.332 294.467 159.153C294.65 157.72 294.893 156.305 295.16 154.892C295.426 153.479 295.723 152.073 296.043 150.672Z" fill="#90BFE7"/>
<path d="M283.86 125.691C284.343 124.739 286.941 123.882 289.496 124.362C292.054 124.824 294.173 126.553 294.285 127.615C294.327 128.017 294.252 128.943 294.056 130.073C294.3 129.963 294.636 129.893 295.107 129.914C296.776 129.986 295.601 135.815 293.154 133.586C292.704 134.859 292.117 136.035 291.382 136.763C290.655 137.482 289.936 137.887 289.301 138.107C288.08 138.534 287.18 138.279 287.18 138.279L286.693 138.189C286.693 138.189 285.519 138.084 284.407 136.93C284.015 136.523 283.631 135.983 283.308 135.274C283.011 134.612 282.856 133.772 282.804 132.861C282.636 130.02 283.448 126.508 283.86 125.691Z" fill="#CE6448"/>
<path d="M288.247 135.663C288.247 136.528 288.716 137.542 289.301 138.106C289.935 137.887 290.655 137.482 291.382 136.762C292.161 135.99 292.776 134.716 293.235 133.355C292.708 132.905 292.024 132.633 291.274 132.633C289.601 132.633 288.247 133.99 288.247 135.663Z" fill="#DE7457"/>
<path d="M282.804 132.861C282.856 133.773 283.011 134.612 283.308 135.275C283.631 135.984 284.015 136.524 284.408 136.931C284.587 136.546 284.687 136.116 284.687 135.664C284.687 134.398 283.91 133.308 282.804 132.861Z" fill="#DE7457"/>
<path d="M295.07 132.463C295.131 132.302 295.15 132.137 295.155 131.968C295.165 131.804 295.16 131.635 295.102 131.502C294.999 131.226 294.644 131.193 294.401 131.366C294.142 131.524 293.908 131.783 293.778 132.063C293.645 132.352 293.624 132.698 293.58 133.038C293.522 132.701 293.487 132.347 293.599 131.994C293.721 131.64 293.965 131.366 294.272 131.152C294.435 131.055 294.644 130.999 294.845 131.042C295.047 131.074 295.24 131.243 295.282 131.439C295.359 131.82 295.263 132.174 295.07 132.463Z" fill="#C3443D"/>
<path d="M294.217 133.135C294.356 132.849 294.385 132.57 294.36 132.285C294.359 132.146 294.32 132.018 294.253 131.916C294.181 131.814 294.064 131.725 293.902 131.723C294.04 131.618 294.256 131.663 294.393 131.784C294.537 131.912 294.587 132.099 294.609 132.266C294.609 132.436 294.597 132.603 294.534 132.761C294.472 132.916 294.366 133.063 294.217 133.135Z" fill="#C3443D"/>
<path d="M288.699 134.375C288.549 134.616 288.255 134.753 287.974 134.713C288.203 134.593 288.407 134.496 288.699 134.375Z" fill="#C3443D"/>
<path d="M289.025 133.305C288.898 133.717 288.579 134.048 288.205 134.271C288.011 134.37 287.803 134.452 287.586 134.475C287.371 134.508 287.152 134.486 286.948 134.429C287.158 134.382 287.357 134.355 287.545 134.288C287.726 134.232 287.879 134.183 288.083 134.053C288.434 133.874 288.725 133.602 289.025 133.305Z" fill="#C3443D"/>
<path d="M286.351 130.051C286.539 130.65 286.488 131.313 286.305 131.915C286.205 132.206 286.111 132.491 286.148 132.763C286.203 133.243 286.369 133.257 286.64 133.459C286.347 133.366 286.052 133.149 285.96 132.803C285.87 132.46 285.989 132.132 286.067 131.841C286.267 131.27 286.332 130.673 286.351 130.051Z" fill="#C3443D"/>
<path d="M287.549 133.253C287.53 133.374 287.482 133.408 287.438 133.454C287.377 133.476 287.327 133.505 287.208 133.471C287.191 133.347 287.249 133.295 287.303 133.244C287.188 133.289 287.628 133.303 287.549 133.253Z" fill="#C3443D"/>
<path d="M288.021 131.406C288.021 131.764 288.238 132.054 288.505 132.054C288.772 132.054 288.989 131.764 288.989 131.406C288.989 131.048 288.772 130.758 288.505 130.758C288.238 130.758 288.021 131.048 288.021 131.406Z" fill="#010101"/>
<path d="M287.83 130.679C287.845 130.694 287.898 130.734 287.949 130.747C288.001 130.764 288.06 130.773 288.119 130.779C288.24 130.787 288.366 130.777 288.491 130.759C288.599 130.744 288.698 130.82 288.713 130.928C288.728 131.036 288.653 131.136 288.545 131.151C288.525 131.154 288.502 131.153 288.483 131.149C288.339 131.125 288.195 131.092 288.054 131.036C287.984 131.006 287.914 130.972 287.849 130.924C287.785 130.871 287.722 130.824 287.692 130.709C287.683 130.676 287.703 130.642 287.736 130.633C287.757 130.628 287.778 130.633 287.793 130.647L287.83 130.679Z" fill="#010101"/>
<path d="M284.377 131.406C284.377 131.764 284.594 132.054 284.861 132.054C285.129 132.054 285.345 131.764 285.345 131.406C285.345 131.048 285.129 130.758 284.861 130.758C284.594 130.758 284.377 131.048 284.377 131.406Z" fill="#010101"/>
<path d="M284.186 130.679C284.202 130.693 284.255 130.733 284.305 130.747C284.358 130.764 284.417 130.773 284.476 130.778C284.597 130.787 284.722 130.777 284.847 130.759C284.955 130.744 285.055 130.82 285.07 130.928C285.085 131.036 285.01 131.136 284.902 131.151C284.881 131.153 284.859 131.153 284.84 131.149C284.696 131.125 284.552 131.092 284.411 131.036C284.34 131.006 284.271 130.972 284.206 130.924C284.142 130.871 284.079 130.824 284.048 130.709C284.039 130.676 284.059 130.642 284.092 130.633C284.113 130.628 284.135 130.633 284.15 130.647L284.186 130.679Z" fill="#010101"/>
<path d="M287.822 129.516C287.983 129.503 288.181 129.49 288.362 129.497C288.547 129.499 288.732 129.517 288.916 129.544C289.101 129.57 289.282 129.62 289.463 129.677C289.644 129.734 289.817 129.815 289.997 129.896L290.005 129.899C290.068 129.928 290.143 129.899 290.171 129.836C290.194 129.785 290.18 129.728 290.142 129.692C289.986 129.549 289.814 129.416 289.623 129.315C289.437 129.204 289.229 129.133 289.021 129.07C288.811 129.007 288.593 128.978 288.374 128.971C288.152 128.969 287.944 128.981 287.709 129.05C287.582 129.087 287.509 129.22 287.546 129.347C287.578 129.458 287.684 129.528 287.796 129.518L287.822 129.516Z" fill="#010101"/>
<path d="M287.396 129.098C287.37 129.193 287.404 129.299 287.476 129.373C287.548 129.446 287.64 129.486 287.727 129.513L287.733 129.515C287.801 129.535 287.872 129.497 287.893 129.43C287.913 129.362 287.875 129.291 287.808 129.27C287.792 129.266 287.776 129.264 287.761 129.265C287.694 129.27 287.63 129.266 287.578 129.243C287.552 129.231 287.529 129.215 287.51 129.192C287.492 129.171 287.479 129.137 287.474 129.11L287.473 129.102C287.47 129.08 287.449 129.065 287.428 129.069C287.412 129.071 287.4 129.083 287.396 129.098Z" fill="#010101"/>
<path d="M285.391 129.516C285.231 129.503 285.033 129.49 284.852 129.497C284.666 129.499 284.482 129.517 284.297 129.544C284.112 129.57 283.931 129.62 283.751 129.677C283.569 129.734 283.396 129.815 283.216 129.896L283.208 129.899C283.145 129.928 283.071 129.899 283.042 129.836C283.02 129.785 283.033 129.728 283.072 129.692C283.228 129.549 283.399 129.416 283.59 129.315C283.777 129.204 283.984 129.133 284.193 129.07C284.402 129.007 284.621 128.978 284.839 128.971C285.062 128.969 285.27 128.981 285.505 129.05C285.632 129.087 285.705 129.22 285.668 129.347C285.635 129.458 285.529 129.528 285.418 129.518L285.391 129.516Z" fill="#010101"/>
<path d="M285.818 129.098C285.844 129.193 285.81 129.299 285.737 129.373C285.665 129.446 285.574 129.486 285.487 129.513L285.481 129.515C285.413 129.535 285.342 129.497 285.321 129.43C285.3 129.362 285.338 129.291 285.406 129.27C285.421 129.266 285.437 129.264 285.453 129.265C285.519 129.27 285.583 129.266 285.636 129.243C285.662 129.231 285.685 129.215 285.703 129.192C285.722 129.171 285.735 129.137 285.739 129.11L285.741 129.102C285.744 129.08 285.764 129.065 285.786 129.069C285.802 129.071 285.814 129.083 285.818 129.098Z" fill="#010101"/>
<path d="M300.137 135.436C300.024 134.594 299.679 133.758 299.029 133.204C298.351 132.627 297.339 132.339 297.04 131.503C296.882 131.067 296.966 130.587 296.978 130.124C297.017 128.648 296.237 127.185 294.994 126.393C294.683 125.715 293.632 125.353 292.908 125.517C292.518 124.556 291.648 123.844 290.681 123.454C289.72 123.07 288.658 122.985 287.618 123.002C286.154 123.03 284.572 123.324 283.594 124.415C282.712 125.404 282.542 126.947 282.395 128.258C281.898 128.547 281.395 128.829 280.971 129.219C280.547 129.604 280.208 130.107 280.118 130.672C279.943 131.819 280.813 132.938 280.632 134.086C280.457 135.233 279.326 135.962 278.806 136.996C278.405 137.788 278.337 138.805 278.71 139.613L287.618 138.929V138.342C287.341 138.325 287.183 138.279 287.183 138.279L286.691 138.189C286.691 138.189 285.521 138.087 284.408 136.934C284.018 136.527 283.633 135.985 283.311 135.278C283.012 134.611 282.859 133.775 282.802 132.865C282.773 132.358 282.776 131.83 282.801 131.3C283.184 130.879 283.552 130.444 283.859 129.966C284.073 129.634 284.263 129.274 284.569 129.022C284.829 128.808 285.153 128.689 285.444 128.519C286.243 128.053 286.935 127.197 286.988 126.273C286.83 127.414 287.469 128.62 288.501 129.132C288.83 129.295 289.2 129.398 289.47 129.647C289.872 130.019 289.99 130.664 290.468 130.933C290.714 131.073 291.012 131.082 291.28 131.174C291.863 131.375 292.263 132.012 292.19 132.624C292.845 132.305 293.169 131.656 293.495 131.004C293.637 130.722 293.85 130.385 294.092 130.059C294.333 129.96 294.659 129.898 295.107 129.914C296.774 129.988 295.604 135.815 293.157 133.588C293.151 133.611 293.14 133.633 293.134 133.65C293.095 133.769 293.05 133.882 293.004 133.995V138.517L300.075 137.974C300.165 137.132 300.256 136.279 300.137 135.436Z" fill="#010101"/>
<path d="M250.592 152.723H131.523V245.792H250.592V152.723Z" fill="#FBB063"/>
<path d="M138.133 153.666C138.074 157.362 138.012 161.059 138.021 164.755C138.021 168.45 138.073 172.146 138.278 175.835C138.473 179.524 138.81 183.205 139.353 186.858C139.621 188.676 139.879 190.536 140.737 192.153C141.159 192.956 141.755 193.663 142.493 194.184C143.225 194.703 144.107 195.033 144.999 194.996C145.889 194.965 146.742 194.562 147.41 193.963C148.088 193.367 148.595 192.593 148.94 191.753C149.634 190.061 149.787 188.192 150.104 186.376L151.841 175.423L153.578 164.471L155.359 153.525L153.715 164.492L152.026 175.452L150.337 186.412C150.027 188.227 149.887 190.099 149.18 191.852C148.828 192.72 148.3 193.536 147.59 194.166C146.89 194.799 145.977 195.242 145.009 195.278C144.042 195.313 143.103 194.953 142.337 194.405C141.565 193.855 140.942 193.108 140.509 192.274C139.629 190.596 139.382 188.711 139.121 186.892C138.592 183.228 138.27 179.539 138.091 175.845C137.903 172.15 137.863 168.451 137.884 164.754C137.92 161.057 138.028 157.361 138.133 153.666Z" fill="#FFD188"/>
<path d="M154.838 188.709C154.955 190.975 154.962 193.241 154.979 195.508C154.963 197.774 154.956 200.04 154.838 202.306C154.72 200.04 154.713 197.774 154.697 195.508C154.714 193.241 154.721 190.975 154.838 188.709Z" fill="#FFD188"/>
<path d="M141.395 153.473L141.673 160.318L141.907 167.164L142.141 174.01C142.185 175.148 142.207 176.299 142.269 177.427C142.312 177.985 142.415 178.543 142.689 179.01C142.958 179.464 143.433 179.823 143.947 179.887C144.468 179.967 144.949 179.636 145.221 179.168C145.509 178.705 145.675 178.152 145.876 177.619C146.272 176.55 146.634 175.469 146.978 174.382C147.665 172.208 148.263 170.006 148.755 167.778C149.249 165.552 149.646 163.304 149.948 161.042C150.263 158.783 150.481 156.509 150.599 154.228C150.527 156.51 150.355 158.791 150.085 161.06C149.802 163.328 149.418 165.583 148.939 167.819C148.461 170.054 147.877 172.267 147.203 174.453C146.865 175.545 146.509 176.632 146.12 177.707C145.921 178.241 145.764 178.796 145.452 179.311C145.297 179.565 145.092 179.806 144.823 179.971C144.556 180.137 144.224 180.208 143.913 180.167C143.286 180.079 142.764 179.668 142.456 179.146C142.153 178.62 142.053 178.021 142.011 177.446C141.956 176.295 141.943 175.161 141.906 174.017L141.72 167.17L141.536 160.322L141.395 153.473Z" fill="#FFD188"/>
<path d="M131.597 208.377C134.78 208.642 137.953 209.077 141.085 209.727C144.217 210.373 147.303 211.236 150.334 212.257C153.357 213.302 156.329 214.496 159.204 215.914C160.62 216.652 162.02 217.526 163.055 218.795C163.567 219.425 163.969 220.162 164.161 220.963C164.363 221.762 164.32 222.61 164.117 223.401C163.664 224.99 162.615 226.303 161.461 227.409C160.274 228.496 159.007 229.486 157.662 230.358C154.986 232.128 152.101 233.533 149.234 234.939C146.367 236.343 143.495 237.755 140.836 239.521L139.845 240.19C139.526 240.416 139.198 240.672 139.101 241.049C138.975 241.417 139.143 241.821 139.421 242.088C139.694 242.368 140.05 242.563 140.415 242.711C141.145 243.036 141.982 242.97 142.735 243.271C143.109 243.41 143.481 243.585 143.772 243.864C143.92 244 144.032 244.173 144.104 244.359C144.175 244.549 144.167 244.755 144.137 244.951C144.165 244.754 144.169 244.549 144.096 244.362C144.022 244.178 143.909 244.009 143.76 243.876C143.468 243.605 143.097 243.436 142.724 243.304C141.976 243.016 141.142 243.095 140.389 242.776C140.016 242.629 139.65 242.438 139.36 242.149C139.065 241.878 138.867 241.431 139.002 241.021C139.104 240.601 139.458 240.323 139.774 240.092L140.759 239.406C143.418 237.617 146.292 236.189 149.151 234.77C152.011 233.35 154.882 231.934 157.531 230.162C158.863 229.289 160.118 228.298 161.281 227.222C162.413 226.13 163.421 224.837 163.844 223.327C164.04 222.577 164.086 221.781 163.898 221.025C163.72 220.268 163.344 219.567 162.854 218.957C161.865 217.73 160.494 216.858 159.096 216.122C156.247 214.699 153.282 213.491 150.273 212.434C147.254 211.4 144.178 210.526 141.056 209.862C137.94 209.168 134.776 208.688 131.597 208.377Z" fill="#FFD188"/>
<path d="M131.692 213.154C133.488 214.176 135.531 214.609 137.553 214.899C139.576 215.22 141.641 215.381 143.622 216.001C145.574 216.624 147.504 217.615 148.812 219.268C149.463 220.084 149.916 221.074 150.045 222.12C150.185 223.16 150.043 224.235 149.666 225.21C148.893 227.167 147.481 228.755 146.004 230.176C144.5 231.585 142.948 232.928 141.384 234.262C139.816 235.591 138.226 236.893 136.609 238.161C134.986 239.421 133.337 240.648 131.669 241.846C133.31 240.61 134.93 239.347 136.523 238.053C138.126 236.77 139.707 235.459 141.262 234.119C142.812 232.776 144.357 231.417 145.841 230.007C147.297 228.587 148.671 227.003 149.402 225.11C149.773 224.173 149.914 223.149 149.789 222.154C149.674 221.154 149.249 220.206 148.627 219.413C147.379 217.806 145.489 216.809 143.565 216.18C141.619 215.552 139.555 215.377 137.532 215.035C135.512 214.7 133.464 214.216 131.692 213.154Z" fill="#FFD188"/>
<path d="M175.285 215.8C173.535 217.045 171.875 218.616 171.146 220.683C170.786 221.701 170.663 222.817 170.887 223.876C171.099 224.939 171.714 225.89 172.516 226.606C173.337 227.308 174.326 227.793 175.353 228.125C176.382 228.456 177.449 228.666 178.523 228.803C180.675 229.043 182.844 229.189 185.009 229.292C189.34 229.486 193.694 229.435 197.99 228.852C200.136 228.562 202.268 228.156 204.355 227.581C206.441 227.003 208.476 226.252 210.444 225.36C211.417 224.902 212.365 224.376 213.173 223.676C213.983 222.985 214.634 222.099 214.945 221.081C215.271 220.08 215.25 218.939 214.727 218.019C214.222 217.084 213.29 216.458 212.329 216.006C211.354 215.551 210.309 215.255 209.276 214.92L206.174 213.933L199.969 211.959C197.906 211.287 195.931 210.287 193.766 210.084C193.231 210.044 192.686 210.038 192.159 210.151C191.635 210.257 191.124 210.448 190.606 210.612C189.567 210.93 188.516 211.206 187.459 211.455C185.346 211.953 183.217 212.384 181.142 213.023C180.107 213.346 179.09 213.729 178.103 214.179C177.12 214.638 176.182 215.189 175.285 215.8ZM175.285 215.8C176.179 215.184 177.114 214.628 178.096 214.163C179.081 213.707 180.097 213.318 181.132 212.989C183.205 212.339 185.334 211.895 187.442 211.386C188.497 211.132 189.545 210.851 190.579 210.528C191.093 210.362 191.602 210.168 192.141 210.055C192.678 209.938 193.231 209.941 193.775 209.978C195.97 210.173 197.959 211.169 200.012 211.824L206.227 213.764L209.335 214.734C210.367 215.063 211.42 215.354 212.418 215.813C213.401 216.269 214.381 216.911 214.928 217.907C215.493 218.889 215.518 220.105 215.182 221.155C214.862 222.223 214.181 223.159 213.348 223.877C212.515 224.604 211.549 225.149 210.563 225.615C208.572 226.504 206.522 227.249 204.42 227.819C202.318 228.386 200.174 228.782 198.018 229.061C193.702 229.623 189.338 229.65 185.003 229.433C182.833 229.318 180.669 229.16 178.509 228.908C177.432 228.764 176.36 228.548 175.325 228.209C174.293 227.869 173.297 227.373 172.469 226.659C171.661 225.93 171.044 224.963 170.835 223.886C170.615 222.815 170.746 221.692 171.113 220.671C171.857 218.597 173.529 217.036 175.285 215.8Z" fill="#FFD188"/>
<path d="M167.189 154.254C167.493 157.029 167.805 159.899 169.136 162.384C169.789 163.616 170.687 164.731 171.818 165.543C172.385 165.945 173.01 166.261 173.671 166.473C174.332 166.686 175.025 166.789 175.72 166.841C177.113 166.938 178.517 166.812 179.928 166.816C181.341 166.839 182.749 166.976 184.14 167.208C186.921 167.688 189.631 168.466 192.359 169.12C193.723 169.447 195.093 169.743 196.478 169.949C197.864 170.14 199.262 170.231 200.659 170.181C203.451 170.067 206.196 169.182 208.56 167.693C213.351 164.757 216.283 159.145 216.124 153.518C216.245 156.328 215.606 159.166 214.322 161.678C213.036 164.194 211.048 166.34 208.661 167.852C206.279 169.371 203.502 170.285 200.67 170.417C199.256 170.475 197.842 170.39 196.442 170.206C195.044 170.005 193.663 169.717 192.293 169.395C189.56 168.722 186.86 167.931 184.1 167.439C182.719 167.202 181.325 167.058 179.927 167.027C178.528 167.015 177.12 167.133 175.706 167.028C175.001 166.971 174.294 166.862 173.617 166.64C172.941 166.419 172.3 166.09 171.722 165.677C170.572 164.839 169.664 163.701 169.015 162.448C167.71 159.908 167.449 157.033 167.189 154.254Z" fill="#FFD188"/>
<path d="M173.588 153.086C173.785 154.71 174.575 156.209 175.664 157.396C176.748 158.593 178.114 159.529 179.602 160.145C182.61 161.379 185.941 161.432 189.163 161.244C192.396 161.039 195.688 160.912 198.759 159.855C200.286 159.334 201.732 158.544 202.935 157.461C204.143 156.393 205.114 155.016 205.552 153.441C205.159 155.027 204.221 156.447 203.029 157.563C201.829 158.682 200.371 159.506 198.832 160.06C197.291 160.625 195.669 160.924 194.051 161.123C192.429 161.317 190.805 161.426 189.178 161.526C187.55 161.608 185.912 161.64 184.281 161.485C182.655 161.328 181.027 160.999 179.517 160.344C178.012 159.692 176.64 158.721 175.561 157.487C174.49 156.253 173.738 154.714 173.588 153.086Z" fill="#FFD188"/>
<path d="M219.836 154.797C219.888 156.453 219.926 158.109 219.944 159.765L219.977 164.733L219.945 169.701C219.926 171.357 219.888 173.012 219.836 174.668C219.784 173.012 219.747 171.357 219.728 169.701L219.695 164.733L219.728 159.765C219.747 158.109 219.784 156.453 219.836 154.797Z" fill="#FFD188"/>
<path d="M226.619 154.986L226.687 160.521L226.712 166.055L226.76 177.123L226.712 188.192L226.688 193.726L226.619 199.261L226.549 193.726L226.525 188.192L226.478 177.123L226.525 166.055L226.55 160.521L226.619 154.986Z" fill="#FFD188"/>
<path d="M239.807 154.797L239.875 163.981L239.9 173.166L239.948 191.535L239.901 209.904L239.876 219.089L239.807 228.273L239.737 219.089L239.713 209.904L239.666 191.535L239.713 173.166L239.738 163.981L239.807 154.797Z" fill="#FFD188"/>
<path d="M214.561 244.098C214.451 243.251 214.425 242.403 214.42 241.555C214.425 240.707 214.45 239.859 214.561 239.012C214.672 239.859 214.697 240.707 214.702 241.555C214.696 242.403 214.671 243.251 214.561 244.098Z" fill="#FFD188"/>
<path d="M218.706 242.779C218.596 241.7 218.571 240.621 218.565 239.542C218.57 238.463 218.595 237.384 218.706 236.305C218.817 237.384 218.842 238.463 218.847 239.542C218.842 240.621 218.816 241.7 218.706 242.779Z" fill="#FFD188"/>
<path d="M221.909 223.373C221.799 222.62 221.773 221.866 221.768 221.113C221.773 220.359 221.798 219.605 221.909 218.852C222.02 219.605 222.045 220.359 222.05 221.113C222.044 221.866 222.019 222.62 221.909 223.373Z" fill="#FFD188"/>
<path d="M229.199 208.667C229.069 207.853 228.963 206.942 229.423 206.189C229.648 205.828 229.995 205.519 230.428 205.419C230.858 205.323 231.331 205.456 231.648 205.768C231.964 206.076 232.162 206.476 232.293 206.883C232.423 207.292 232.502 207.715 232.528 208.143C232.556 208.991 232.576 209.833 232.557 210.678C232.511 214.059 232.124 217.416 231.915 220.776C231.67 224.13 231.631 227.516 232.194 230.831C232.361 231.652 232.459 232.499 232.824 233.245C233.001 233.616 233.232 233.968 233.552 234.216C233.868 234.464 234.284 234.582 234.681 234.509C235.488 234.362 236.099 233.604 236.263 232.801C236.443 231.978 236.288 231.125 236.138 230.302C236.31 231.12 236.491 231.969 236.331 232.814C236.181 233.643 235.585 234.454 234.706 234.645C234.271 234.735 233.806 234.609 233.456 234.343C233.102 234.077 232.853 233.706 232.664 233.323C232.271 232.546 232.161 231.691 231.98 230.869C231.368 227.533 231.41 224.12 231.633 220.757C231.866 217.39 232.249 214.039 232.341 210.674C232.372 209.834 232.365 208.989 232.351 208.153C232.298 207.339 232.116 206.464 231.553 205.867C231.271 205.575 230.85 205.444 230.45 205.52C230.049 205.6 229.707 205.882 229.481 206.226C229.015 206.938 229.09 207.849 229.199 208.667Z" fill="#FFD188"/>
<path d="M235.85 223.75C235.733 221.834 235.726 219.918 235.709 218.001C235.725 216.085 235.732 214.168 235.85 212.252C235.968 214.168 235.975 216.085 235.991 218.001C235.975 219.918 235.967 221.834 235.85 223.75Z" fill="#FFD188"/>
<path d="M235.85 185.318C235.96 186.512 235.986 187.706 235.991 188.899C235.986 190.093 235.961 191.286 235.85 192.48C235.739 191.286 235.714 190.093 235.709 188.899C235.715 187.706 235.74 186.512 235.85 185.318Z" fill="#FFD188"/>
<path d="M241.79 154.805C242.115 156.964 242.422 159.124 242.712 161.287C242.889 162.359 242.914 163.478 243.282 164.471C243.468 164.965 243.77 165.407 244.202 165.695C244.622 165.988 245.16 166.116 245.63 165.957L245.542 166.05C246.12 164.113 246.495 162.119 246.711 160.108C246.92 158.096 246.959 156.064 246.816 154.039C247.058 156.055 247.096 158.099 246.922 160.128C246.756 162.158 246.369 164.168 245.81 166.128C245.798 166.172 245.762 166.206 245.722 166.221C245.144 166.425 244.512 166.247 244.047 165.92C243.566 165.595 243.231 165.09 243.039 164.564C242.84 164.035 242.754 163.483 242.684 162.94L242.492 161.314C242.241 159.147 242.007 156.977 241.79 154.805Z" fill="#FFD188"/>
<path d="M249.038 165.158C249.09 167.404 249.128 169.65 249.146 171.896L249.179 178.634L249.147 185.372C249.128 187.618 249.091 189.864 249.038 192.11C248.986 189.864 248.949 187.618 248.93 185.372L248.897 178.634L248.93 171.896C248.949 169.65 248.987 167.404 249.038 165.158Z" fill="#FFD188"/>
<path d="M245.459 195.115C245.569 195.719 245.594 196.323 245.6 196.927C245.595 197.531 245.569 198.135 245.459 198.739C245.348 198.135 245.322 197.531 245.317 196.927C245.323 196.323 245.349 195.719 245.459 195.115Z" fill="#FFD188"/>
<path d="M158.606 157.059C158.723 159.315 158.731 161.571 158.748 163.827C158.731 166.083 158.724 168.339 158.606 170.595C158.489 168.339 158.482 166.083 158.465 163.827C158.482 161.571 158.49 159.315 158.606 157.059Z" fill="#FFD188"/>
<path d="M162.375 165.533C162.485 166.255 162.51 166.978 162.516 167.7C162.511 168.422 162.485 169.144 162.375 169.866C162.264 169.144 162.238 168.422 162.233 167.7C162.239 166.978 162.265 166.255 162.375 165.533Z" fill="#FFD188"/>
<path d="M133.738 166.664C133.79 169.726 133.827 172.788 133.846 175.85L133.879 185.037L133.846 194.223C133.827 197.285 133.79 200.348 133.738 203.41C133.686 200.348 133.648 197.285 133.629 194.223L133.597 185.037L133.63 175.85C133.648 172.788 133.686 169.726 133.738 166.664Z" fill="#FFD188"/>
<path d="M137.505 197.941C137.615 198.576 137.641 199.211 137.647 199.846C137.642 200.481 137.616 201.117 137.505 201.752C137.395 201.117 137.369 200.481 137.364 199.846C137.37 199.211 137.395 198.576 137.505 197.941Z" fill="#FFD188"/>
<path d="M165.577 221.867C165.628 223.755 165.666 225.644 165.685 227.532L165.718 233.196L165.685 238.861C165.666 240.749 165.629 242.637 165.577 244.525C165.524 242.637 165.487 240.749 165.468 238.861L165.436 233.196L165.468 227.532C165.487 225.644 165.525 223.755 165.577 221.867Z" fill="#FFD188"/>
<path d="M169.157 239.576C169.267 240.242 169.292 240.908 169.298 241.574C169.293 242.24 169.267 242.907 169.157 243.573C169.046 242.907 169.021 242.24 169.016 241.574C169.021 240.908 169.047 240.242 169.157 239.576Z" fill="#FFD188"/>
<path d="M208.721 229.779C208.773 231.085 208.81 232.39 208.829 233.696L208.862 237.612L208.83 241.528C208.811 242.834 208.773 244.139 208.721 245.445C208.669 244.139 208.631 242.834 208.612 241.528L208.58 237.612L208.613 233.696C208.631 232.39 208.669 231.085 208.721 229.779Z" fill="#FFD188"/>
<path d="M206.083 239.387C206.193 240.393 206.219 241.4 206.224 242.407C206.219 243.414 206.194 244.421 206.083 245.427C205.972 244.421 205.947 243.414 205.942 242.407C205.948 241.4 205.973 240.393 206.083 239.387Z" fill="#FFD188"/>
<path d="M243.786 244.846C243.387 242.77 243.078 240.675 242.86 238.57C242.656 236.463 242.543 234.348 242.527 232.231C242.512 230.114 242.588 227.996 242.757 225.885C242.838 224.829 242.951 223.776 243.078 222.724C243.145 222.209 243.203 221.626 243.594 221.168C243.788 220.947 244.075 220.798 244.366 220.764C244.658 220.725 244.949 220.783 245.212 220.89C245.75 221.105 246.132 221.592 246.336 222.095C246.55 222.605 246.637 223.141 246.722 223.662C246.888 224.707 247.047 225.754 247.187 226.803C247.469 228.9 247.695 231.005 247.864 233.114C248.034 235.223 248.143 237.337 248.196 239.452C248.234 241.567 248.217 243.683 248.142 245.796C248.171 243.682 248.142 241.568 248.057 239.456C247.985 237.344 247.863 235.234 247.677 233.13C247.492 231.025 247.251 228.926 246.953 226.835C246.806 225.789 246.64 224.746 246.466 223.705C246.378 223.186 246.288 222.669 246.086 222.202C245.889 221.735 245.562 221.333 245.103 221.15C244.659 220.952 244.109 220.987 243.795 221.349C243.477 221.707 243.4 222.243 243.334 222.757C243.2 223.804 243.079 224.853 242.99 225.904C242.807 228.007 242.715 230.118 242.715 232.23C242.713 234.341 242.814 236.453 242.997 238.557C243.169 240.662 243.432 242.761 243.786 244.846Z" fill="#FFD188"/>
<path d="M221.344 189.461C221.396 190.905 221.433 192.35 221.452 193.794L221.485 198.127L221.452 202.461C221.433 203.905 221.396 205.349 221.344 206.794C221.292 205.349 221.254 203.905 221.235 202.461L221.203 198.127L221.236 193.794C221.254 192.35 221.292 190.905 221.344 189.461Z" fill="#FFD188"/>
<path d="M161.055 204.346C161.172 206.015 161.18 207.684 161.196 209.353C161.18 211.021 161.173 212.69 161.055 214.359C160.938 212.69 160.93 211.021 160.914 209.353C160.931 207.684 160.938 206.015 161.055 204.346Z" fill="#FFD188"/>
<path d="M163.693 212.258C163.803 212.671 163.829 213.084 163.834 213.497C163.829 213.91 163.804 214.323 163.693 214.736C163.582 214.323 163.557 213.91 163.552 213.497C163.557 213.084 163.583 212.671 163.693 212.258Z" fill="#FFD188"/>
<path d="M168.968 170.623C169.078 171.485 169.103 172.347 169.109 173.21C169.104 174.072 169.079 174.934 168.968 175.796C168.857 174.934 168.832 174.072 168.827 173.21C168.832 172.347 168.858 171.485 168.968 170.623Z" fill="#FFD188"/>
<path d="M229.603 160.762C229.484 160.197 229.359 159.603 229.517 159.022C229.6 158.737 229.751 158.466 229.977 158.262C230.202 158.058 230.518 157.946 230.827 157.978C231.452 158.048 231.95 158.544 232.155 159.109C232.368 159.681 232.364 160.29 232.365 160.87L232.321 167.863L232.213 174.856L232.178 176.6C232.182 176.879 232.225 177.171 232.42 177.348C232.602 177.543 232.905 177.538 233.152 177.428C233.405 177.318 233.625 177.123 233.783 176.891C233.948 176.661 234.01 176.375 234.066 176.091C234.176 175.53 234.213 174.906 234.581 174.436C234.233 174.921 234.223 175.532 234.135 176.102C234.09 176.388 234.037 176.691 233.87 176.948C233.711 177.202 233.487 177.419 233.209 177.554C232.943 177.688 232.552 177.708 232.311 177.464C232.059 177.24 232.011 176.896 231.999 176.606L231.995 174.854L232.039 167.86L232.149 160.867C232.161 160.288 232.175 159.704 231.988 159.171C231.815 158.649 231.363 158.191 230.812 158.115C230.541 158.076 230.259 158.162 230.044 158.341C229.828 158.52 229.673 158.771 229.583 159.042C229.408 159.594 229.505 160.193 229.603 160.762Z" fill="#FFD188"/>
<path d="M236.227 156.682C236.344 158.66 236.351 160.638 236.368 162.617C236.352 164.595 236.345 166.574 236.227 168.552C236.109 166.574 236.102 164.595 236.086 162.617C236.103 160.638 236.11 158.66 236.227 156.682Z" fill="#FFD188"/>
<path d="M145.834 199.246C146.477 199.426 146.837 200.089 146.985 200.704C147.144 201.337 147.146 201.988 147.19 202.622L147.373 206.452C147.396 207.089 147.403 207.726 147.61 208.304C147.806 208.87 148.261 209.377 148.842 209.497C149.43 209.614 150.034 209.238 150.383 208.738C150.751 208.23 150.911 207.594 151.059 206.976C150.955 207.603 150.845 208.25 150.498 208.816C150.152 209.358 149.517 209.815 148.806 209.711C148.103 209.6 147.598 209.011 147.369 208.393C147.134 207.761 147.122 207.096 147.091 206.463L146.974 202.63C146.956 201.99 146.977 201.351 146.851 200.734C146.747 200.13 146.459 199.475 145.834 199.246Z" fill="#FFD188"/>
<path d="M252.004 140.348H130.11V153.077H252.004V140.348Z" fill="#ED5C41"/>
<path d="M252.004 140.347H130.108L139.88 122.605H242.238L252.004 140.347Z" fill="#FBB063"/>
<path d="M212.158 128.234H169.954V131.247H212.158V128.234Z" fill="#010101"/>
<path d="M135.241 132.168C137.993 132.116 140.745 132.078 143.497 132.058L151.753 132.024C152.44 132.019 153.134 132.043 153.808 132.009C154.478 131.97 155.161 131.84 155.677 131.436C156.178 131.055 156.396 130.315 156.204 129.717C156.111 129.417 155.882 129.183 155.58 129.1C155.273 129.007 154.927 129.003 154.577 128.947C154.403 128.917 154.218 128.877 154.05 128.766C153.878 128.656 153.773 128.455 153.758 128.258C153.744 128.051 153.833 127.862 153.942 127.717C154.05 127.569 154.177 127.447 154.298 127.325C154.548 127.088 154.757 126.837 154.838 126.513C154.927 126.198 154.914 125.854 154.833 125.531C154.683 124.871 154.221 124.32 153.652 123.947C153.084 123.563 152.435 123.316 151.792 123.076C152.442 123.295 153.1 123.519 153.689 123.889C154.279 124.246 154.784 124.804 154.967 125.496C155.062 125.835 155.083 126.205 154.991 126.554C154.912 126.91 154.669 127.214 154.425 127.45C154.195 127.691 153.928 127.951 153.955 128.243C153.976 128.554 154.279 128.698 154.61 128.732C154.94 128.78 155.291 128.774 155.648 128.873C156.016 128.965 156.328 129.281 156.436 129.639C156.662 130.351 156.425 131.171 155.835 131.639C155.255 132.097 154.515 132.234 153.825 132.278C153.126 132.318 152.442 132.298 151.753 132.306L143.497 132.275C140.745 132.256 137.993 132.219 135.241 132.168Z" fill="#FFD188"/>
<path d="M213.43 136.709C216.467 136.658 219.504 136.62 222.541 136.601L231.652 136.568L240.763 136.601C243.8 136.62 246.836 136.657 249.873 136.709C246.836 136.762 243.8 136.799 240.763 136.818L231.652 136.851L222.541 136.818C219.504 136.799 216.467 136.761 213.43 136.709Z" fill="#FFD188"/>
<path d="M236.226 134.637C238.173 134.521 240.12 134.513 242.067 134.496C244.014 134.512 245.961 134.52 247.908 134.637C245.961 134.755 244.014 134.762 242.067 134.778C240.12 134.762 238.173 134.754 236.226 134.637Z" fill="#FFD188"/>
<path d="M243.899 130.281C240.504 131.15 236.978 131.541 233.466 131.41C231.709 131.352 229.958 131.154 228.228 130.846C227.362 130.691 226.504 130.499 225.65 130.288C225.224 130.177 224.789 130.05 224.386 129.829C223.987 129.615 223.613 129.278 223.429 128.835C223.246 128.408 223.212 127.865 223.502 127.444C223.792 127.02 224.279 126.871 224.693 126.75L227.225 126.044L232.29 124.637C233.98 124.181 235.667 123.679 237.404 123.395C239.133 123.117 240.941 123.089 242.622 123.613C240.928 123.134 239.136 123.211 237.427 123.531C235.707 123.842 234.033 124.364 232.349 124.847L227.295 126.291L224.768 127.01C224.358 127.127 223.943 127.276 223.73 127.599C223.511 127.915 223.531 128.358 223.689 128.724C223.843 129.1 224.152 129.386 224.52 129.588C224.886 129.791 225.299 129.916 225.718 130.027C226.564 130.241 227.415 130.436 228.274 130.593C229.991 130.912 231.73 131.103 233.475 131.194C236.965 131.362 240.48 131.049 243.899 130.281Z" fill="#FFD188"/>
<path d="M136.562 136.709C138.996 136.658 141.43 136.62 143.864 136.601L151.166 136.568L158.468 136.601C160.902 136.62 163.336 136.657 165.77 136.709C163.336 136.762 160.902 136.799 158.468 136.818L151.166 136.851L143.864 136.818C141.43 136.799 138.996 136.761 136.562 136.709Z" fill="#FFD188"/>
<path d="M162.562 134.825C163.41 134.715 164.258 134.689 165.107 134.684C165.955 134.689 166.803 134.714 167.652 134.825C166.803 134.936 165.955 134.961 165.107 134.966C164.258 134.96 163.41 134.935 162.562 134.825Z" fill="#FFD188"/>
<path d="M183.321 139.651C182.795 139.06 182.264 138.463 181.874 137.765C181.482 137.075 181.265 136.257 181.381 135.449C181.484 134.636 182.057 133.907 182.807 133.581C183.551 133.237 184.377 133.163 185.175 133.194C186.779 133.257 188.328 133.667 189.878 133.951C190.653 134.095 191.433 134.211 192.215 134.237C192.997 134.269 193.777 134.188 194.547 134.042C196.091 133.756 197.583 133.205 199.123 132.804C200.648 132.395 202.297 132.138 203.873 132.545C207.025 133.355 209.233 136.723 208.698 139.886C208.921 138.308 208.449 136.691 207.554 135.409C206.67 134.119 205.338 133.116 203.821 132.756C202.296 132.397 200.699 132.634 199.188 133.052C197.666 133.457 196.174 134.02 194.599 134.32C193.813 134.465 193.007 134.543 192.205 134.506C191.403 134.476 190.611 134.353 189.831 134.204C188.27 133.904 186.735 133.505 185.165 133.41C184.389 133.367 183.589 133.429 182.881 133.742C182.169 134.042 181.634 134.701 181.517 135.471C181.384 136.237 181.567 137.04 181.934 137.733C182.3 138.433 182.812 139.046 183.321 139.651Z" fill="#FFD188"/>
<path d="M215.879 134.26C216.686 134.15 217.494 134.125 218.301 134.119C219.108 134.124 219.915 134.15 220.723 134.26C219.915 134.371 219.108 134.397 218.301 134.402C217.494 134.396 216.686 134.37 215.879 134.26Z" fill="#FFD188"/>
<path d="M215.313 124.651C216.099 124.541 216.885 124.515 217.67 124.51C218.456 124.515 219.242 124.54 220.027 124.651C219.242 124.762 218.456 124.787 217.67 124.792C216.885 124.787 216.099 124.761 215.313 124.651Z" fill="#FFD188"/>
<path d="M157.663 125.028C158.61 124.918 159.557 124.892 160.503 124.887C161.45 124.892 162.397 124.917 163.343 125.028C162.397 125.139 161.45 125.164 160.503 125.169C159.557 125.164 158.61 125.138 157.663 125.028Z" fill="#FFD188"/>
<path d="M140.33 127.1C141.086 126.99 141.842 126.965 142.599 126.959C143.355 126.964 144.111 126.989 144.867 127.1C144.111 127.211 143.355 127.236 142.599 127.241C141.842 127.236 141.086 127.21 140.33 127.1Z" fill="#FFD188"/>
<path d="M177.071 122.604H154.254C153.971 120.694 153.304 115.471 153.988 112.549C154.836 108.92 158.419 103.031 158.419 103.031L175.516 104.303C177.845 107.7 177.263 119.535 177.071 122.604Z" fill="#ED5C41"/>
<path d="M159.454 103.338C158.692 104.821 157.975 106.325 157.307 107.849C156.65 109.373 156.014 110.922 155.66 112.531C155.623 112.733 155.577 112.934 155.547 113.135L155.491 113.742C155.481 114.157 155.476 114.573 155.476 114.989L155.509 117.486L155.639 122.484C155.484 120.823 155.365 119.159 155.291 117.493C155.247 116.66 155.231 115.825 155.219 114.99C155.215 114.573 155.215 114.155 155.221 113.737L155.273 113.098C155.302 112.888 155.347 112.681 155.384 112.473C155.77 110.829 156.407 109.274 157.11 107.76C157.815 106.245 158.601 104.771 159.454 103.338Z" fill="#F68953"/>
<path d="M161.361 103.763C160.896 104.625 160.311 105.415 159.654 106.143C159.316 106.499 158.965 106.847 158.562 107.137C158.164 107.412 157.697 107.698 157.193 107.649C157.437 107.606 157.656 107.526 157.855 107.391C158.06 107.271 158.245 107.119 158.427 106.966C158.784 106.648 159.12 106.305 159.446 105.951C160.1 105.243 160.716 104.498 161.361 103.763Z" fill="#F68953"/>
<path d="M170.616 115.345C169.804 115.992 168.946 116.567 168.078 117.125C167.204 117.674 166.319 118.206 165.388 118.666C166.2 118.019 167.058 117.444 167.926 116.886C168.801 116.338 169.686 115.806 170.616 115.345Z" fill="#F68953"/>
<path d="M167.931 122.695C167.88 121.735 167.914 120.779 167.967 119.825C168.031 118.872 168.115 117.92 168.285 116.973C168.336 117.933 168.303 118.888 168.249 119.843C168.184 120.796 168.1 121.748 167.931 122.695Z" fill="#F68953"/>
<path d="M168.356 105.034L168.328 107.934L168.265 110.832C168.264 110.858 168.254 110.883 168.239 110.902L165.923 113.882C165.876 113.943 165.787 113.954 165.726 113.907C165.688 113.878 165.67 113.832 165.672 113.788C165.754 112.223 165.822 110.656 165.916 109.092C166.006 107.526 166.114 105.962 166.236 104.398C166.217 105.967 166.184 107.534 166.132 109.101C166.085 110.668 166.012 112.234 165.953 113.801L165.702 113.707L168.048 110.752L168.023 110.823L168.172 107.928L168.356 105.034Z" fill="#F68953"/>
<path d="M175.491 107.152C175.571 107.424 175.678 107.68 175.779 107.94L176.096 108.706C176.2 108.961 176.321 109.207 176.447 109.447C176.582 109.679 176.72 109.918 176.975 110.049C176.674 110.032 176.441 109.787 176.266 109.567C176.085 109.337 175.95 109.08 175.836 108.818C175.727 108.553 175.632 108.283 175.572 108.004C175.513 107.727 175.455 107.441 175.491 107.152Z" fill="#F68953"/>
<path d="M193.956 95.3673C191.552 92.1737 188.895 88.9841 185.883 86.2168C185.624 86.51 185.386 86.7897 185.181 87.053C183.744 88.8923 182.444 90.8257 181.127 92.748C183.852 95.0934 186.469 97.375 189.48 100.287C193.974 104.633 198.307 110.134 202.37 115.224C203.349 114.577 204.197 113.768 205.138 113.061C201.713 106.838 198.249 101.071 193.956 95.3673Z" fill="#E7946A"/>
<path d="M202.636 111.998C202.636 111.998 203.49 112.023 204.563 112.522C205.637 113.02 206.288 114.553 206.992 115.072C207.695 115.59 208.332 116.001 208.242 116.246C208.152 116.491 207.78 116.319 206.602 115.607C206.602 115.607 205.952 115.402 206.391 115.903C206.83 116.404 208.159 117.288 207.985 117.689C207.844 118.014 206.01 116.541 205.861 116.561C205.712 116.581 207.682 118.702 207.353 119.211C207.025 119.721 205.501 116.877 205.156 116.957C204.812 117.038 206.137 118.961 205.881 119.173C205.319 119.638 203.877 116.224 203.614 116.398C203.352 116.573 203.586 117.945 203.169 118.006C202.752 118.067 202.792 116.565 202.676 116.307C202.561 116.049 200.922 113.169 202.636 111.998Z" fill="#E7946A"/>
<path d="M172.929 78.7012C172.929 78.7012 178.104 80.0023 180.977 81.745C183.85 83.4877 188.136 88.0093 188.136 88.0093C188.136 88.0093 185.97 92.9077 183.332 95.0272L177.209 90.0346L172.929 78.7012Z" fill="#23B60B"/>
<path d="M173.756 71.7923L168.412 71.1602L167.345 80.1796L172.689 80.8117L173.756 71.7923Z" fill="#E7946A"/>
<path d="M173.292 75.7157L173.186 76.6063C171.803 77.3935 170.655 77.1469 170.655 77.1469L170.178 77.0906C170.178 77.0906 169.004 77.0624 167.843 75.9741L167.948 75.0859C169.109 76.1743 170.284 76.2 170.284 76.2L170.76 76.2563C170.76 76.2563 171.908 76.5053 173.292 75.7157Z" fill="#D46D4D"/>
<path d="M158.253 103.058C158.253 103.058 171.817 105.248 175.986 104.966L176.622 99.0311C176.622 99.0311 179.801 88.7162 180.013 85.4663C180.225 82.2164 177.946 79.9733 172.93 78.7016C172.93 78.7016 170.422 81.4746 167.596 78.2247C167.596 78.2247 163.551 77.8361 161.432 79.2491C159.312 80.6621 158.465 102.776 158.465 102.776" fill="white"/>
<path d="M171.554 91.1972C171.234 92.0546 170.778 92.8549 170.257 93.6051C169.726 94.3493 169.127 95.0485 168.427 95.6384C168.964 94.8983 169.51 94.1832 170.026 93.4425C170.55 92.7078 171.039 91.9524 171.554 91.1972Z" fill="#90BFE7"/>
<path d="M172.517 92.2598C172.417 93.2847 172.105 94.2868 171.663 95.2202C171.212 96.1495 170.627 97.0206 169.889 97.7398C170.454 96.8808 170.975 96.0134 171.408 95.0981C171.851 94.1871 172.201 93.238 172.517 92.2598Z" fill="#90BFE7"/>
<path d="M166.797 78.7969C167.428 80.0265 168.691 80.8545 170.018 80.9155C171.345 80.9722 172.677 80.2603 173.415 79.0923C172.875 80.3808 171.446 81.2625 170.006 81.1977C168.566 81.1332 167.221 80.1281 166.797 78.7969Z" fill="#90BFE7"/>
<path d="M226.547 94.1416L208.495 128.24L206.901 131.253H180.67L174.978 128.24L169.439 125.307L194.828 77.3496L226.547 94.1416Z" fill="white"/>
<path d="M169.532 125.413L177.253 121.96L184.991 118.545L200.468 111.72L200.386 111.872L197.558 94.8139L196.145 86.2847L194.778 77.748L196.283 86.2615L197.744 94.7825L200.662 111.825C200.673 111.89 200.637 111.952 200.58 111.977L185.065 118.716L177.307 122.084L169.532 125.413Z" fill="#90BFE7"/>
<path d="M225.958 94.0449C223.754 94.9177 221.546 95.7772 219.331 96.6191L212.677 99.1227L206.001 101.565C203.773 102.371 201.539 103.161 199.299 103.936C201.502 103.063 203.711 102.203 205.926 101.361L212.579 98.858L219.255 96.4162C221.483 95.6096 223.718 94.8206 225.958 94.0449Z" fill="#90BFE7"/>
<path d="M194.966 114.393C195.206 115.767 195.432 117.144 195.639 118.523L196.236 122.663L196.769 126.812C196.939 128.196 197.09 129.583 197.227 130.972C196.987 129.597 196.761 128.221 196.554 126.842L195.957 122.701L195.424 118.552C195.254 117.168 195.103 115.781 194.966 114.393Z" fill="#90BFE7"/>
<path d="M181.007 106.518C180.997 106.164 183.194 106.958 183.334 106.656C183.641 105.994 179.973 105.467 180.075 105.169C180.177 104.871 181.564 104.748 181.517 104.33C181.47 103.911 180.028 104.331 179.748 104.284C179.627 104.264 178.955 104.093 178.177 104.064C173.504 101.996 168.568 99.827 164.104 97.4144C164.757 94.5874 165.439 91.9562 166.157 89.1099C165.613 88.9377 165.073 88.7611 164.544 88.5838C163.918 88.4849 163.293 88.3847 162.666 88.2904C161.191 88.0688 159.727 87.7517 158.262 87.4375C157.752 89.3255 157.37 91.2545 157.095 93.1979C156.886 94.646 156.736 96.0996 156.626 97.5471C156.48 99.4789 157.597 101.284 159.404 101.983C160.653 102.466 162.01 102.981 162.861 103.276C167.474 104.891 172.093 106.19 176.927 107.409C177.759 108.052 179.063 108.299 179.649 108.772C180.329 109.321 180.888 109.832 181.102 109.683C181.316 109.534 181.055 109.218 180.068 108.259C180.068 108.259 179.704 107.683 180.3 107.98C180.896 108.277 182.089 109.338 182.433 109.068C182.712 108.849 180.821 107.449 180.803 107.3C180.784 107.151 183.336 108.518 183.745 108.07C184.154 107.623 181.016 106.872 181.007 106.518Z" fill="#E7946A"/>
<path d="M164.115 78.3105C164.115 78.3105 161.43 78.5931 160.63 79.8648C159.829 81.1365 157.427 89.0964 156.579 92.5818C156.579 92.5818 162.467 94.3245 165.246 94.0419C165.246 94.0419 168.024 84.3864 167.412 82.0786C166.8 79.7706 165.764 78.8757 164.115 78.3105Z" fill="#23B60B"/>
<path d="M177.857 69.2608C177.254 69.1627 176.894 69.2728 176.678 69.4289C176.989 67.6639 177.058 66.0507 176.963 65.4935C176.792 64.4747 174.632 62.9362 172.128 62.6475C169.626 62.3439 167.167 63.3359 166.76 64.2864C166.541 64.7995 166.237 66.3518 166.125 68.1135C165.938 67.9411 165.623 67.7901 165.091 67.7504C163.735 67.6495 164.078 72.3326 166.166 71.1191C166.173 71.1761 166.179 71.2333 166.185 71.2897C166.295 72.168 166.497 72.9716 166.826 73.5917C167.291 74.4668 167.841 75.0475 168.364 75.4339C169.375 76.1798 170.283 76.1993 170.283 76.1993L170.76 76.2556C170.76 76.2556 171.793 76.4784 173.079 75.8306C173.604 75.5657 174.172 75.1575 174.73 74.5267C175.201 73.9937 175.588 73.2497 175.898 72.411C175.921 72.3498 175.943 72.2876 175.965 72.2255C177.74 74.0546 179.214 69.4815 177.857 69.2608Z" fill="#E7946A"/>
<path d="M164.871 69.8694C164.739 69.6103 164.694 69.3065 164.795 68.9973C164.85 68.8379 165.026 68.7162 165.198 68.7093C165.369 68.6942 165.538 68.7614 165.663 68.8577C165.898 69.0658 166.073 69.318 166.14 69.6239C166.199 69.9287 166.135 70.2198 166.053 70.4937C166.051 70.2067 166.067 69.9172 165.984 69.6637C165.904 69.418 165.735 69.1795 165.535 69.0228C165.35 68.8555 165.051 68.8478 164.939 69.0669C164.878 69.1721 164.857 69.3116 164.849 69.4493C164.836 69.59 164.836 69.7292 164.871 69.8694Z" fill="#D46D4D"/>
<path d="M165.514 70.512C165.397 70.4372 165.323 70.3048 165.287 70.1693C165.25 70.0316 165.256 69.8916 165.274 69.7507C165.308 69.6141 165.368 69.4631 165.501 69.3711C165.626 69.2836 165.811 69.2676 165.915 69.3688C165.78 69.3539 165.674 69.4171 165.604 69.4943C165.538 69.5728 165.493 69.6754 165.479 69.7909C165.429 70.0251 165.426 70.2603 165.514 70.512Z" fill="#D46D4D"/>
<path d="M177.575 71.3748C177.642 71.2466 177.674 71.1113 177.694 70.9713C177.719 70.8357 177.731 70.6952 177.696 70.5786C177.638 70.3392 177.346 70.2771 177.127 70.3966C176.896 70.5023 176.676 70.6948 176.54 70.915C176.401 71.1422 176.349 71.4275 176.28 71.706C176.264 71.4205 176.27 71.1226 176.398 70.8399C176.535 70.558 176.764 70.3539 177.041 70.2061C177.185 70.1418 177.365 70.1158 177.528 70.1705C177.693 70.2172 177.837 70.3767 177.853 70.5445C177.879 70.8688 177.764 71.1538 177.575 71.3748Z" fill="#D46D4D"/>
<path d="M176.8 71.8498C176.944 71.6254 176.995 71.3959 177.002 71.1567C177.015 71.041 176.995 70.9308 176.949 70.839C176.899 70.7476 176.811 70.6614 176.677 70.6445C176.801 70.5703 176.977 70.6289 177.079 70.7433C177.186 70.8637 177.209 71.0245 177.211 71.1654C177.195 71.3064 177.168 71.4441 177.1 71.5693C177.033 71.6928 176.931 71.8041 176.8 71.8498Z" fill="#D46D4D"/>
<path d="M168.842 74.1939C168.793 74.6082 168.613 75.0497 168.364 75.4303C167.841 75.0439 167.291 74.4632 166.826 73.5881C166.497 72.968 166.295 72.1644 166.185 71.2861C166.311 71.2833 166.437 71.2881 166.566 71.3034C167.992 71.4721 169.011 72.7649 168.842 74.1939Z" fill="#EBA17A"/>
<path d="M175.899 72.4074C175.588 73.2461 175.201 73.9901 174.73 74.5231C174.172 75.1539 173.603 75.5621 173.079 75.827C172.966 75.4439 172.916 75.0405 172.958 74.6808C173.127 73.2518 174.42 72.2325 175.846 72.4012L175.899 72.4074Z" fill="#EBA17A"/>
<path d="M170.211 69.5134C170.169 69.8687 169.92 70.1312 169.655 70.0998C169.389 70.0683 169.208 69.7549 169.25 69.3997C169.292 69.0444 169.541 68.7819 169.807 68.8133C170.072 68.8447 170.254 69.1581 170.211 69.5134Z" fill="#010101"/>
<path d="M173.83 69.9411C173.788 70.2964 173.538 70.5589 173.273 70.5275C173.007 70.4961 172.826 70.1826 172.868 69.8273C172.91 69.4721 173.159 69.2096 173.425 69.241C173.69 69.2724 173.872 69.5859 173.83 69.9411Z" fill="#010101"/>
<path d="M170.554 67.6507C170.396 67.6185 170.201 67.5821 170.021 67.5686C169.837 67.5488 169.651 67.5444 169.465 67.5499C169.278 67.5543 169.092 67.5819 168.906 67.618C168.719 67.6525 168.538 67.7129 168.35 67.7719L168.342 67.7745C168.275 67.7954 168.205 67.7586 168.184 67.6923C168.167 67.6394 168.188 67.5835 168.23 67.5526C168.402 67.4288 168.588 67.317 168.79 67.2394C168.988 67.1507 169.202 67.1043 169.417 67.0671C169.632 67.0292 169.852 67.0258 170.07 67.0443C170.291 67.0689 170.496 67.1054 170.722 67.201C170.844 67.2526 170.9 67.3932 170.849 67.515C170.803 67.6217 170.69 67.6785 170.581 67.6561L170.554 67.6507Z" fill="#010101"/>
<path d="M171.027 67.2843C171.041 67.3822 170.995 67.4834 170.914 67.5479C170.834 67.6121 170.739 67.6412 170.65 67.6574L170.643 67.6586C170.574 67.6712 170.507 67.6251 170.494 67.5557C170.482 67.4863 170.528 67.4199 170.597 67.4073C170.613 67.4044 170.63 67.4048 170.645 67.4076C170.71 67.4204 170.774 67.4233 170.829 67.407C170.856 67.3987 170.881 67.3855 170.902 67.3648C170.923 67.3455 170.94 67.3138 170.947 67.2876L170.95 67.2792C170.956 67.2581 170.978 67.2459 170.999 67.2519C171.014 67.2562 171.025 67.2693 171.027 67.2843Z" fill="#010101"/>
<path d="M172.969 67.94C173.13 67.9455 173.328 67.9557 173.507 67.9847C173.69 68.0084 173.872 68.0474 174.052 68.0962C174.232 68.1441 174.406 68.2142 174.579 68.2927C174.752 68.3698 174.915 68.4709 175.084 68.5722L175.091 68.5767C175.151 68.6124 175.228 68.593 175.264 68.5334C175.292 68.4858 175.285 68.4268 175.251 68.3869C175.113 68.2264 174.959 68.0742 174.781 67.9517C174.608 67.8193 174.411 67.7242 174.211 67.6379C174.011 67.5508 173.797 67.4961 173.581 67.4632C173.36 67.4356 173.152 67.4232 172.911 67.4636C172.78 67.4854 172.692 67.6088 172.714 67.7392C172.733 67.8536 172.83 67.9353 172.942 67.9391L172.969 67.94Z" fill="#010101"/>
<path d="M172.595 67.4725C172.558 67.5643 172.579 67.6734 172.643 67.755C172.705 67.8362 172.791 67.8866 172.874 67.9233L172.881 67.926C172.945 67.9545 173.021 67.9252 173.049 67.8606C173.077 67.7961 173.048 67.7207 172.984 67.6923C172.969 67.6858 172.953 67.6823 172.938 67.6816C172.871 67.6787 172.808 67.6667 172.759 67.638C172.734 67.6236 172.713 67.6049 172.697 67.5799C172.682 67.5563 172.672 67.5215 172.671 67.4942L172.671 67.4855C172.67 67.4636 172.652 67.4466 172.63 67.4475C172.614 67.4482 172.6 67.4584 172.595 67.4725Z" fill="#010101"/>
<path d="M170.664 71.3576C170.753 71.3635 170.813 71.4068 170.875 71.4472C170.928 71.4989 170.983 71.5476 171.008 71.6342C170.918 71.6286 170.859 71.585 170.797 71.5445C170.744 71.4927 170.689 71.4438 170.664 71.3576Z" fill="#D46D4D"/>
<path d="M171.997 71.5161C171.952 71.5941 171.887 71.6288 171.824 71.6668C171.754 71.6917 171.686 71.7202 171.597 71.7047C171.642 71.6264 171.707 71.5919 171.771 71.554C171.84 71.5291 171.908 71.501 171.997 71.5161Z" fill="#D46D4D"/>
<path d="M169.627 71.6798C169.87 71.8689 170.124 72.0312 170.39 72.159C170.656 72.2843 170.933 72.3823 171.221 72.4089C171.504 72.4551 171.797 72.4399 172.082 72.3694C172.372 72.3152 172.643 72.1885 172.93 72.0704C172.813 72.1695 172.692 72.2682 172.561 72.3541C172.422 72.4243 172.287 72.5095 172.134 72.5542C171.837 72.6701 171.506 72.688 171.188 72.6562C170.55 72.5608 169.969 72.1965 169.627 71.6798Z" fill="#D46D4D"/>
<path d="M170.609 72.8185C170.842 72.8825 171.03 72.9383 171.234 72.9477C171.436 72.9795 171.636 72.9536 171.881 72.9689C171.794 73.0559 171.688 73.1159 171.573 73.1538C171.457 73.1958 171.333 73.1957 171.209 73.196C170.969 73.1584 170.716 73.0495 170.609 72.8185Z" fill="#D46D4D"/>
<path d="M179.399 68.5017C179.207 68.1512 178.941 67.8234 178.902 67.4278C178.839 66.7778 179.393 66.2296 179.467 65.5853C179.535 64.9466 179.116 64.3532 178.625 63.9462C178.133 63.5393 177.545 63.2453 177.082 62.8101C176.392 62.1602 175.968 61.1993 175.115 60.7811C174.403 60.4307 173.549 60.5493 172.786 60.7811C172.023 61.0128 171.283 61.3463 170.491 61.4028C169.796 61.4593 169.107 61.2954 168.411 61.2332C167.716 61.1654 166.97 61.2106 166.405 61.6232C165.461 62.3127 165.41 63.7088 164.76 64.6866C164.319 65.3535 163.607 65.8057 163.155 66.467C162.353 67.6426 162.533 69.2986 163.302 70.5025C163.952 71.5142 165.252 72.7011 166.445 73.0232C166.495 73.0346 166.541 73.0515 166.592 73.0572C166.394 72.5372 166.269 71.9324 166.185 71.2937C166.179 71.2373 166.173 71.1807 166.168 71.1185C164.076 72.3338 163.732 67.6539 165.088 67.7499C165.574 67.7858 165.869 67.9157 166.06 68.0696C166.28 68.7195 166.628 69.3293 167.094 69.8408C167.18 69.038 167.875 68.3424 168.678 68.257C169.059 68.2166 169.447 68.2988 169.824 68.2298C170.352 68.133 170.79 67.7445 171.072 67.2874C171.354 66.8304 171.659 66.3043 171.805 65.7873C171.587 66.2786 171.757 66.8825 172.124 67.2748C172.491 67.667 173.021 67.8724 173.552 67.958C173.815 68.0005 174.118 68.0363 174.27 68.2557C174.409 68.4576 174.361 68.7363 174.459 68.9618C174.587 69.2617 174.93 69.3951 175.178 69.6067C175.512 69.891 175.683 70.3551 175.612 70.7878C176.136 70.3463 176.616 69.8421 177.011 69.283C177.22 69.2253 177.488 69.2027 177.856 69.2647C179.212 69.4851 177.737 74.0576 175.963 72.2264C175.946 72.2885 175.923 72.3507 175.9 72.4128C175.612 73.1816 175.262 73.871 174.838 74.391C174.911 74.3854 174.985 74.3798 175.058 74.3741C176.488 74.2271 177.924 73.6394 178.856 72.5372C179.783 71.4294 180.1 69.7677 179.399 68.5017Z" fill="#253E89"/>
</svg>
